<?xml version="1.0" standalone="no"?>
<!DOCTYPE svg PUBLIC "-//W3C//DTD SVG 20010904//EN"
 "http://www.w3.org/TR/2001/REC-SVG-20010904/DTD/svg10.dtd">
<svg version="1.0" xmlns="http://www.w3.org/2000/svg"
 width="1344.000000pt" height="742.000000pt" viewBox="0 0 1344.000000 742.000000"
 preserveAspectRatio="xMidYMid meet">

<g transform="translate(0.000000,742.000000) scale(0.100000,-0.100000)"
fill="#000000" stroke="none">
<path d="M1908 7056 c-62 -17 -121 -57 -157 -106 -15 -22 -31 -37 -33 -34 -3
2 -11 -15 -17 -40 -12 -50 -15 -2413 -4 -4256 6 -1036 -4 -1713 -28 -1936 -10
-86 -9 -109 5 -157 32 -109 123 -192 224 -204 35 -4 52 -2 52 5 0 8 230 12
828 13 1131 1 1839 12 1876 27 16 7 31 10 33 8 3 -3 -17 -12 -43 -21 l-49 -15
45 4 c43 4 44 4 20 -9 -36 -20 -19 -18 42 5 64 24 129 86 157 151 17 39 20 58
14 110 l-7 64 -8 -53 c-7 -46 -41 -132 -53 -132 -2 0 6 21 18 48 l22 47 0
3130 c0 3054 0 3131 -19 3179 -24 63 -88 133 -146 160 -45 21 -48 21 -1385 23
-1060 1 -1350 -1 -1387 -11z m2724 -34 c21 -7 40 -17 42 -21 3 -5 -13 -1 -37
8 -38 14 -166 16 -1287 19 -1149 3 -1388 -1 -1455 -23 -19 -6 -19 -6 -1 6 10
6 42 15 70 19 28 4 631 7 1341 6 1008 -1 1298 -4 1327 -14z m-568 -755 c16
-12 15 -16 -16 -54 -18 -23 -35 -42 -38 -42 -3 0 -20 19 -38 42 -31 38 -32 42
-16 54 10 7 34 13 54 13 20 0 44 -6 54 -13z m146 -42 l0 -55 -56 0 -56 0 53
55 c30 29 55 54 57 55 1 0 2 -25 2 -55z m150 0 l0 -55 -35 0 -35 0 0 55 0 55
35 0 35 0 0 -55z m151 38 c0 -5 2 -22 4 -40 5 -31 -14 -51 -36 -37 -10 6 -12
67 -2 77 9 9 33 9 34 0z m97 -33 c4 -40 -11 -59 -33 -40 -18 15 -20 66 -2 73
22 10 32 1 35 -33z m60 28 c16 -16 15 -53 -3 -68 -21 -17 -35 -4 -35 34 0 45
14 58 38 34z m-352 -298 c2 0 4 -20 4 -45 0 -60 -42 -112 -83 -101 -33 8 -57
43 -64 95 -5 38 -4 40 33 59 35 18 42 19 73 6 18 -8 35 -14 37 -14z m-2286
-25 l-23 -25 46 0 c26 0 47 -4 47 -10 0 -5 -21 -10 -47 -10 l-46 0 23 -25 c33
-35 4 -33 -32 2 l-28 27 32 33 c18 18 36 33 42 33 5 0 -1 -11 -14 -25z m650
-13 c0 -20 3 -23 12 -14 17 17 33 15 19 -2 -9 -11 -10 -20 -1 -35 13 -26 -4
-29 -19 -3 -10 16 -10 16 -11 0 0 -10 -4 -18 -10 -18 -5 0 -10 25 -10 56 0 34
4 53 10 49 6 -3 10 -18 10 -33z m1910 23 c0 -8 -7 -15 -15 -15 -8 0 -15 7 -15
15 0 8 7 15 15 15 8 0 15 -7 15 -15z m-2124 -7 c5 -7 9 -28 9 -47 0 -25 -5
-36 -22 -42 -33 -12 -50 10 -45 60 4 35 7 41 27 41 12 0 26 -6 31 -12z m82
-20 c32 -32 1 -89 -37 -68 -33 17 -22 80 14 80 6 0 16 -5 23 -12z m87 -8 c17
-18 17 -21 1 -45 -9 -14 -21 -25 -26 -25 -13 0 -40 30 -40 45 0 15 26 45 39
45 4 0 16 -9 26 -20z m192 -26 c1 -35 1 -36 -5 -9 -4 17 -14 30 -22 30 -8 0
-18 -13 -21 -30 -7 -29 -7 -29 -8 7 -1 27 4 38 17 41 30 8 37 1 39 -39z m84
36 c5 0 9 -15 8 -32 -3 -58 -8 -68 -37 -67 -24 2 -24 2 -4 6 12 2 22 9 22 14
0 6 -5 7 -10 4 -16 -10 -40 14 -40 39 0 27 20 48 38 41 8 -3 18 -5 23 -5z
m103 4 c24 -9 19 -24 -6 -21 -17 1 -23 -3 -23 -18 0 -14 6 -20 23 -19 26 1 29
-11 6 -20 -35 -13 -60 44 -32 72 14 14 12 14 32 6z m90 -10 c9 -8 16 -22 16
-29 0 -15 -27 -45 -40 -45 -16 0 -39 42 -32 59 12 32 33 38 56 15z m133 -34
c1 -41 0 -42 -5 -11 -9 45 -32 53 -32 12 0 -17 -4 -31 -10 -31 -5 0 -10 14
-10 30 0 20 -5 30 -15 30 -10 0 -15 -10 -15 -30 0 -16 -4 -30 -10 -30 -5 0
-10 15 -10 34 0 38 8 43 70 41 34 -1 35 -1 37 -45z m-487 5 c0 -19 -4 -35 -10
-35 -5 0 -10 16 -10 35 0 19 5 35 10 35 6 0 10 -16 10 -35z m1838 13 c-6 -18
-28 -21 -28 -4 0 9 7 16 16 16 9 0 14 -5 12 -12z m-6 -60 c-15 -15 -26 -4 -18
18 5 13 9 15 18 6 9 -9 9 -15 0 -24z m-2697 -199 c3 -10 5 -296 4 -636 0 -340
-1 -630 0 -645 l1 -28 1375 0 1375 0 2 663 3 662 45 0 45 0 3 -2272 2 -2273
-1465 0 -1465 0 0 2275 0 2276 35 -3 c23 -1 37 -8 40 -19z m279 -1 c-2 -3 -30
-21 -62 -38 -31 -18 -64 -38 -72 -45 -8 -7 -25 -16 -37 -19 -19 -6 -21 -4 -18
29 3 29 -2 39 -25 57 l-29 23 123 0 c68 0 122 -3 120 -7z m294 -28 c2 -19 7
-37 10 -40 12 -9 32 -49 33 -67 1 -10 4 -6 8 9 4 21 10 25 20 18 12 -7 12 -11
2 -24 -10 -12 -10 -16 -2 -16 16 0 42 -26 34 -34 -4 -3 3 -6 15 -6 12 0 22 -4
22 -9 0 -5 -6 -9 -12 -8 -57 2 -68 -3 -69 -30 l-1 -28 -13 30 c-10 21 -14 24
-15 11 0 -17 -1 -17 -25 -2 -13 9 -45 16 -70 16 -38 0 -47 -4 -55 -22 -10 -23
-10 -23 -7 2 1 16 9 26 22 28 11 2 30 8 43 15 22 10 22 12 5 18 -13 6 -9 8 15
8 34 1 46 21 12 21 -11 0 -20 7 -20 15 0 8 0 18 -1 23 0 4 10 10 23 14 23 6
23 6 -2 8 l-25 1 25 11 25 11 -25 7 c-24 8 -24 8 -2 9 45 2 20 21 -28 21 l-50
0 0 -75 c0 -45 -4 -75 -10 -75 -7 0 -10 30 -8 83 l3 82 35 6 c69 13 85 8 88
-31z m182 30 c-36 -12 -130 -12 -130 0 0 6 32 10 78 9 54 -1 69 -3 52 -9z
m1413 3 c-18 -2 -48 -2 -65 0 -18 2 -4 4 32 4 36 0 50 -2 33 -4z m567 -11 c0
-13 -20 -29 -66 -51 -36 -18 -68 -30 -71 -27 -3 2 -2 23 2 45 l7 40 61 4 c34
2 63 4 65 5 1 1 2 -6 2 -16z m-697 -2 c77 -2 92 -5 62 -10 -32 -6 -34 -7 -12
-9 17 0 26 -5 22 -12 -4 -6 -51 -9 -128 -8 -136 3 -159 7 -154 22 4 14 38 22
78 21 16 -1 75 -3 132 -4z m287 2 c0 -4 -16 -6 -35 -4 -19 2 -35 6 -35 8 0 2
16 4 35 4 19 0 35 -4 35 -8z m-130 -12 c0 -5 -4 -10 -9 -10 -6 0 -13 5 -16 10
-3 6 1 10 9 10 9 0 16 -4 16 -10z m-45 -20 c-3 -5 -10 -10 -16 -10 -5 0 -9 5
-9 10 0 6 7 10 16 10 8 0 12 -4 9 -10z m-12 -26 l47 -7 -1 -76 c-1 -47 -4 -66
-8 -51 -10 37 -62 40 -85 5 -10 -16 -23 -24 -32 -21 -8 3 -14 1 -14 -5 0 -20
-20 3 -21 24 -1 20 -2 20 -9 -3 -4 -14 -8 -20 -9 -13 -2 18 -49 9 -76 -15
l-25 -22 0 25 c0 21 -5 25 -30 25 -20 0 -30 5 -30 15 0 8 -4 15 -10 15 -5 0
-10 24 -10 54 l0 55 133 0 c72 1 153 -2 180 -5z m-1633 -38 c0 -11 -19 -15
-25 -6 -3 5 1 10 9 10 9 0 16 -2 16 -4z m910 -6 c0 -5 -2 -10 -4 -10 -3 0 -8
5 -11 10 -3 6 -1 10 4 10 6 0 11 -4 11 -10z m-33 -57 c-3 -10 -5 -2 -5 17 0
19 2 27 5 18 2 -10 2 -26 0 -35z m133 17 c0 -5 -2 -10 -4 -10 -3 0 -8 5 -11
10 -3 6 -1 10 4 10 6 0 11 -4 11 -10z m-100 -70 c0 -23 -5 -30 -19 -30 -14 0
-18 5 -14 20 3 11 9 17 14 14 5 -3 9 2 9 10 0 9 2 16 5 16 3 0 5 -13 5 -30z
m-743 -22 c-3 -8 -6 -5 -6 6 -1 11 2 17 5 13 3 -3 4 -12 1 -19z m-107 -13 c0
-8 -2 -15 -4 -15 -2 0 -6 7 -10 15 -3 8 -1 15 4 15 6 0 10 -7 10 -15z m534
-19 c-3 -8 -1 -17 5 -21 6 -3 11 -17 11 -31 0 -32 -22 -55 -41 -44 -11 7 -10
10 3 15 16 6 16 9 2 30 -11 16 -12 25 -4 30 6 4 9 13 6 20 -5 15 3 27 15 19 4
-2 6 -11 3 -18z m-132 -26 c18 0 -1 -14 -23 -17 -14 -2 -19 1 -15 9 3 7 9 22
13 33 7 19 8 19 11 -2 2 -13 8 -23 14 -23z m8 -44 c0 -19 -17 -29 -37 -22 -12
5 -13 9 -3 21 16 19 40 19 40 1z m1043 7 c-13 -2 -33 -2 -45 0 -13 2 -3 4 22
4 25 0 35 -2 23 -4z m154 1 c-10 -11 -67 -13 -73 -3 -3 5 14 9 37 9 23 0 39
-3 36 -6z m203 -12 c0 -4 -18 -6 -40 -4 -22 2 -40 6 -40 8 0 2 18 4 40 4 22 0
40 -3 40 -8z m146 -15 c1 -11 0 -12 -3 -3 -2 8 -14 17 -26 19 -18 3 -18 4 3 3
16 -1 25 -7 26 -19z m81 -129 c-3 -8 -6 -5 -6 6 -1 11 2 17 5 13 3 -3 4 -12 1
-19z m-1542 2 c4 -6 -12 -10 -42 -9 -36 0 -43 3 -28 9 28 12 63 12 70 0z
m-142 -7 c-7 -2 -21 -2 -30 0 -10 3 -4 5 12 5 17 0 24 -2 18 -5z m997 -143 c0
-5 -9 -10 -20 -10 -11 0 -20 -6 -21 -12 0 -10 -2 -10 -6 0 -2 6 -16 12 -29 12
-14 0 -22 4 -19 10 3 6 26 10 51 10 24 0 44 -4 44 -10z m130 -50 c0 -52 2 -60
18 -58 14 3 19 -8 26 -64 9 -67 10 -68 40 -69 17 -1 50 -3 74 -4 l42 -3 0 69
c0 38 4 69 9 69 4 0 8 -8 8 -17 0 -10 1 -42 2 -70 l1 -53 60 0 c41 0 60 -4 60
-12 0 -10 3 -9 9 1 10 16 107 23 134 9 12 -6 17 -19 15 -46 l-1 -37 -4 38 -4
37 -55 0 c-59 0 -60 -1 -69 -65 -15 -114 -15 -115 -46 -115 -24 0 -29 4 -29
25 0 18 -5 25 -18 25 -10 0 -22 3 -26 7 -3 4 -15 7 -26 8 -15 1 -20 -5 -20
-21 0 -30 -26 -55 -48 -47 -23 9 -32 23 -32 56 0 15 -4 27 -9 27 -14 0 -20
-38 -7 -44 6 -2 4 -5 -5 -5 -9 -1 -19 8 -22 20 -8 29 -27 14 -27 -21 0 -27 -3
-30 -32 -27 -30 2 -33 6 -36 40 -4 41 -22 51 -22 12 0 -21 -5 -25 -27 -25 -18
0 -24 3 -15 8 9 6 6 12 -12 20 -23 10 -25 9 -29 -21 -2 -21 -4 -13 -5 22 -2
41 -5 51 -14 43 -20 -15 -78 -20 -78 -6 0 6 7 15 17 18 14 6 14 8 1 19 -9 6
-18 22 -21 34 -6 25 8 33 59 33 24 0 34 5 34 16 0 8 5 12 10 9 6 -4 8 -11 5
-16 -4 -5 27 -9 74 -9 52 0 81 4 81 11 0 6 -9 13 -19 16 -20 5 -31 30 -31 71
0 19 -5 22 -45 22 l-45 0 0 -46 c0 -25 -3 -43 -8 -40 -4 2 -6 25 -4 50 l4 46
49 0 49 0 0 34 c0 56 -8 66 -51 66 -21 0 -39 5 -39 10 0 6 23 10 50 10 l50 0
0 -60z m135 52 c6 -4 11 -27 12 -52 1 -25 2 -48 2 -52 1 -5 10 -8 22 -8 12 0
17 -4 14 -11 -4 -6 -13 -8 -21 -5 -15 6 -19 -20 -7 -50 6 -16 7 -16 14 2 7 18
8 18 8 -2 1 -32 -24 -37 -38 -8 -6 14 -11 34 -11 44 0 16 -7 20 -32 22 l-33 1
33 4 c30 4 32 7 32 44 0 34 -4 41 -27 50 -14 5 -32 8 -40 5 -14 -6 -18 6 -6
17 9 9 65 9 78 -1z m177 -59 c1 -32 0 -76 -3 -98 l-5 -40 -8 38 c-7 33 -12 37
-40 39 l-31 1 33 4 c31 4 32 6 32 49 0 40 -2 44 -25 44 -14 0 -25 5 -25 10 0
6 15 10 34 10 l34 0 4 -57z m-1780 4 c-7 -8 -10 -64 -9 -147 0 -74 3 -105 4
-67 5 80 23 91 23 13 0 -29 3 -69 6 -87 4 -27 3 -31 -6 -19 -8 11 -13 12 -16
3 -3 -7 -12 -9 -21 -6 -11 4 -14 2 -9 -5 4 -7 4 -12 -1 -12 -4 0 -18 -3 -31
-6 -19 -6 -22 -3 -18 17 3 13 5 28 5 33 1 5 8 3 16 -4 12 -10 15 -10 15 2 0
21 -45 42 -67 33 -17 -8 -17 -8 0 -12 28 -7 14 -28 -21 -31 -22 -2 -32 -9 -32
-20 0 -14 -3 -14 -18 4 -9 12 -24 24 -32 27 -8 2 3 8 25 12 36 7 37 9 16 17
-18 6 -22 13 -17 31 3 12 6 30 6 40 0 9 6 17 14 17 21 0 29 128 10 158 l-14
22 91 0 c73 0 89 -3 81 -13z m1518 -27 c0 -5 -5 -10 -11 -10 -5 0 -7 5 -4 10
3 6 8 10 11 10 2 0 4 -4 4 -10z m-1713 -6 c-3 -3 -12 -4 -19 -1 -8 3 -5 6 6 6
11 1 17 -2 13 -5z m336 -1 c-13 -2 -33 -2 -45 0 -13 2 -3 4 22 4 25 0 35 -2
23 -4z m1547 3 c0 -3 -4 -8 -10 -11 -5 -3 -10 -1 -10 4 0 6 5 11 10 11 6 0 10
-2 10 -4z m-1953 -128 c-2 -24 -4 -5 -4 42 0 47 2 66 4 43 2 -24 2 -62 0 -85z
m2172 65 c-2 -28 -3 -31 -6 -12 -3 16 -14 29 -31 36 l-27 11 33 1 c31 1 32 0
31 -36z m51 33 c0 -11 -19 -15 -25 -6 -3 5 1 10 9 10 9 0 16 -2 16 -4z m-123
-88 c-3 -7 -5 -2 -5 12 0 14 2 19 5 13 2 -7 2 -19 0 -25z m-1678 -35 c0 -39
-3 -51 -8 -38 -8 19 -3 95 5 95 2 0 4 -26 3 -57z m481 7 c0 -16 -7 -20 -30
-20 -31 0 -43 19 -12 21 14 0 14 2 -3 9 -17 7 -15 9 13 9 26 1 32 -3 32 -19z
m-83 -12 c-3 -8 -6 -5 -6 6 -1 11 2 17 5 13 3 -3 4 -12 1 -19z m-102 2 c3 -5
1 -10 -4 -10 -6 0 -11 5 -11 10 0 6 2 10 4 10 3 0 8 -4 11 -10z m-715 -46 c0
-8 -4 -12 -10 -9 -5 3 -10 10 -10 16 0 5 5 9 10 9 6 0 10 -7 10 -16z m350 6
c0 -5 -8 -10 -17 -10 -15 0 -16 2 -3 10 19 12 20 12 20 0z m-9 -59 c-8 -5 -20
-7 -28 -4 -21 8 -15 13 15 13 20 0 23 -3 13 -9z m-171 -36 c0 -9 -9 -15 -22
-15 -21 0 -21 0 -2 15 24 18 24 18 24 0z m1840 -35 c0 -5 -7 -10 -15 -10 -8 0
-15 5 -15 10 0 6 7 10 15 10 8 0 15 -4 15 -10z m-2513 -3987 c-3 -10 -5 -2 -5
17 0 19 2 27 5 18 2 -10 2 -26 0 -35z m23 -78 c0 -5 -5 -3 -10 5 -5 8 -10 20
-10 25 0 6 5 3 10 -5 5 -8 10 -19 10 -25z m3025 -115 c-3 -5 -16 -15 -28 -21
-19 -9 -19 -8 3 10 28 23 34 26 25 11z"/>
<path d="M4485 6240 c3 -5 8 -10 11 -10 2 0 4 5 4 10 0 6 -5 10 -11 10 -5 0
-7 -4 -4 -10z"/>
<path d="M4480 6210 c0 -5 5 -10 10 -10 6 0 10 5 10 10 0 6 -4 10 -10 10 -5 0
-10 -4 -10 -10z"/>
<path d="M4574 6235 c-3 -8 -3 -19 1 -25 11 -18 25 -11 25 15 0 27 -17 34 -26
10z"/>
<path d="M4640 6225 c0 -14 5 -25 10 -25 6 0 10 11 10 25 0 14 -4 25 -10 25
-5 0 -10 -11 -10 -25z"/>
<path d="M4260 5905 c-18 -19 -26 -22 -37 -13 -21 17 -25 3 -5 -15 17 -16 20
-15 47 13 16 16 26 32 23 35 -2 3 -15 -6 -28 -20z"/>
<path d="M2420 5926 c0 -10 9 -16 21 -16 24 0 21 23 -4 28 -10 2 -17 -3 -17
-12z"/>
<path d="M2420 5875 c0 -8 9 -15 20 -15 11 0 20 7 20 15 0 8 -9 15 -20 15 -11
0 -20 -7 -20 -15z"/>
<path d="M2508 5898 c-7 -19 2 -38 17 -38 15 0 28 27 19 41 -8 13 -31 11 -36
-3z"/>
<path d="M2593 5894 c-8 -21 13 -42 28 -27 13 13 5 43 -11 43 -6 0 -13 -7 -17
-16z"/>
<path d="M2864 5895 c-7 -18 3 -35 22 -35 8 0 14 10 14 25 0 27 -27 35 -36 10z"/>
<path d="M3064 5895 c-7 -18 3 -35 22 -35 8 0 14 10 14 25 0 27 -27 35 -36 10z"/>
<path d="M2029 4168 c-5 -15 -4 -69 2 -84 5 -12 8 -1 8 34 1 28 -1 52 -4 52
-3 0 -5 -1 -6 -2z"/>
<path d="M2060 4120 c0 -27 5 -50 10 -50 6 0 10 15 10 33 l0 32 21 -32 c12
-18 25 -33 30 -33 5 0 9 23 9 51 0 31 -4 48 -10 44 -5 -3 -10 -18 -10 -33 l0
-27 -21 33 c-12 17 -25 32 -30 32 -5 0 -9 -22 -9 -50z"/>
<path d="M2160 4120 c0 -27 5 -50 10 -50 6 0 10 9 10 20 0 11 3 20 8 20 4 0
13 -9 20 -20 7 -11 17 -20 23 -20 6 0 1 12 -10 27 -19 23 -20 28 -6 43 25 27
17 35 -10 10 l-25 -23 0 21 c0 12 -4 22 -10 22 -5 0 -10 -22 -10 -50z"/>
<path d="M2291 4170 c-8 -20 -8 -91 0 -96 5 -3 9 4 9 15 0 31 47 29 53 -1 2
-13 4 2 4 32 0 30 -2 45 -4 33 -3 -16 -11 -23 -28 -23 -17 0 -25 7 -28 23 -2
12 -5 20 -6 17z"/>
<path d="M2583 4120 c-1 -27 3 -50 8 -50 5 0 9 23 9 50 0 28 -4 50 -8 50 -5 0
-9 -22 -9 -50z"/>
<path d="M2667 4123 c-9 -25 -14 -49 -11 -52 4 -3 9 0 11 7 6 15 35 16 51 0 9
-9 12 -9 12 0 0 18 -31 92 -39 92 -4 0 -14 -21 -24 -47z m29 -10 c-10 -10 -19
5 -10 18 6 11 8 11 12 0 2 -7 1 -15 -2 -18z"/>
<path d="M3160 4156 c0 -8 -10 -16 -22 -18 -18 -2 -23 -10 -23 -33 0 -25 4
-30 28 -33 26 -3 27 -2 27 47 0 28 -2 51 -5 51 -3 0 -5 -6 -5 -14z m-3 -42 c8
-22 -15 -44 -26 -25 -10 16 -4 41 10 41 5 0 12 -7 16 -16z"/>
<path d="M2467 4153 c-2 -4 -2 -25 0 -45 4 -26 10 -38 21 -38 12 0 13 3 4 12
-15 15 -16 45 -1 50 7 2 6 8 -4 16 -8 7 -17 9 -20 5z"/>
<path d="M2943 4148 c-14 -19 3 -78 24 -78 13 0 13 3 3 15 -7 8 -10 23 -7 34
7 26 -7 46 -20 29z"/>
<path d="M2384 4126 c-10 -26 1 -51 22 -54 27 -4 47 21 39 48 -7 24 -53 28
-61 6z m41 -21 c0 -10 -6 -20 -12 -22 -8 -3 -13 5 -13 22 0 17 5 25 13 23 6
-3 12 -13 12 -23z"/>
<path d="M2514 4126 c-15 -39 23 -74 50 -46 8 9 6 11 -11 5 -14 -4 -23 -2 -23
4 0 6 9 11 21 11 14 0 19 5 17 18 -4 22 -46 29 -54 8z m36 -6 c0 -5 -4 -10
-10 -10 -5 0 -10 5 -10 10 0 6 5 10 10 10 6 0 10 -4 10 -10z"/>
<path d="M2751 4103 c1 -36 2 -36 8 -9 9 41 31 46 31 7 0 -17 5 -31 10 -31 6
0 10 14 10 30 0 17 4 30 9 30 12 0 24 -37 16 -50 -3 -5 -1 -10 4 -10 6 0 11
16 11 35 l0 35 -50 0 -50 0 1 -37z"/>
<path d="M2870 4124 c0 -9 9 -18 20 -21 11 -3 20 -10 20 -15 0 -5 -10 -6 -22
-3 -18 6 -20 4 -12 -5 14 -15 46 -10 52 8 2 7 -5 16 -17 19 -12 3 -21 10 -21
15 0 6 7 8 15 4 8 -3 15 -1 15 4 0 6 -11 10 -25 10 -16 0 -25 -6 -25 -16z"/>
<path d="M2994 4126 c-10 -26 1 -51 24 -54 12 -2 22 1 22 7 0 6 -6 8 -14 5 -8
-3 -17 -1 -21 5 -4 7 4 11 20 11 20 0 26 4 23 18 -4 22 -46 29 -54 8z m36 -6
c0 -5 -4 -10 -10 -10 -5 0 -10 5 -10 10 0 6 5 10 10 10 6 0 10 -4 10 -10z"/>
<path d="M3060 4105 c0 -19 5 -35 10 -35 6 0 10 13 10 29 0 16 6 32 13 34 6 3
2 6 -10 6 -20 1 -23 -4 -23 -34z"/>
<path d="M3195 4130 c-5 -9 -1 -10 14 -5 12 4 21 2 21 -4 0 -6 -9 -11 -21 -11
-32 0 -20 -34 14 -38 27 -3 28 -1 25 30 -2 25 -8 34 -25 36 -11 2 -24 -2 -28
-8z m35 -40 c0 -5 -4 -10 -10 -10 -5 0 -10 5 -10 10 0 6 5 10 10 10 6 0 10 -4
10 -10z"/>
<path d="M3271 4103 c1 -36 2 -36 8 -9 9 41 31 46 31 7 0 -17 5 -31 10 -31 6
0 10 14 10 31 0 20 4 29 13 26 6 -2 11 -16 10 -30 -1 -15 2 -27 7 -27 6 0 10
16 10 35 l0 35 -50 0 -50 0 1 -37z"/>
<path d="M2292 3905 c0 -27 2 -44 5 -37 3 9 9 10 18 2 9 -8 12 -3 11 19 -1 21
-4 27 -13 19 -8 -6 -13 -1 -16 19 -2 16 -4 6 -5 -22z"/>
<path d="M3002 3905 c-1 -35 1 -45 8 -35 8 13 11 12 24 -5 9 -11 16 -15 16 -9
0 5 -5 15 -12 22 -8 8 -8 15 2 27 8 10 9 15 1 15 -6 0 -11 -4 -11 -10 0 -23
-19 -8 -23 18 -2 15 -5 6 -5 -23z"/>
<path d="M3263 3905 c0 -27 2 -37 4 -22 5 33 25 31 34 -4 7 -23 7 -23 8 4 1
21 -5 30 -18 34 -11 3 -22 12 -24 22 -3 9 -5 -6 -4 -34z"/>
<path d="M3987 3943 c-4 -3 -7 -25 -6 -47 l1 -41 10 40 c6 22 16 43 22 47 7 5
5 8 -5 8 -9 0 -19 -3 -22 -7z"/>
<path d="M2020 3900 c0 -22 5 -40 10 -40 6 0 10 7 10 15 0 21 38 19 43 -2 3
-10 5 2 5 27 0 30 -2 39 -7 26 -10 -26 -41 -30 -41 -5 0 10 -4 19 -10 19 -5 0
-10 -18 -10 -40z"/>
<path d="M2171 3898 c1 -39 2 -40 8 -13 l7 30 18 -27 c26 -39 36 -35 35 15 -2
29 -3 34 -6 15 -5 -35 -16 -35 -33 -3 -20 37 -30 31 -29 -17z"/>
<path d="M2352 3900 c1 -30 2 -36 5 -17 5 33 25 31 34 -4 7 -23 7 -23 8 4 1
18 -5 30 -16 34 -10 4 -21 11 -25 17 -4 6 -7 -9 -6 -34z"/>
<path d="M2440 3900 c0 -22 5 -40 10 -40 6 0 10 18 10 40 0 22 -4 40 -10 40
-5 0 -10 -18 -10 -40z"/>
<path d="M2790 3901 c0 -42 21 -61 46 -40 21 17 17 50 -6 56 -11 3 -20 9 -20
14 0 5 -4 9 -10 9 -5 0 -10 -18 -10 -39z m46 -2 c3 -6 -1 -18 -10 -27 -15 -15
-16 -14 -16 11 0 27 13 36 26 16z"/>
<path d="M3480 3901 c0 -31 4 -40 22 -44 29 -8 38 -1 38 30 0 16 -7 27 -20 30
-11 3 -20 9 -20 14 0 5 -4 9 -10 9 -5 0 -10 -17 -10 -39z m45 -14 c0 -26 -20
-25 -23 2 -3 16 1 22 10 19 7 -3 13 -12 13 -21z"/>
<path d="M4300 3932 c0 -5 -9 -12 -20 -15 -13 -3 -20 -14 -20 -30 0 -26 27
-44 43 -28 12 12 16 71 5 77 -4 3 -8 1 -8 -4z m0 -41 c0 -23 -16 -36 -25 -21
-9 14 1 40 15 40 5 0 10 -9 10 -19z"/>
<path d="M2112 3890 c0 -19 2 -27 5 -17 2 9 2 25 0 35 -3 9 -5 1 -5 -18z"/>
<path d="M2262 3890 c0 -19 2 -27 5 -17 2 9 2 25 0 35 -3 9 -5 1 -5 -18z"/>
<path d="M2419 3913 c0 -5 -2 -18 -5 -30 -2 -13 1 -23 6 -23 6 0 10 14 10 30
0 26 -9 44 -11 23z"/>
<path d="M2525 3904 c5 -10 9 -31 9 -46 1 -36 4 -35 22 7 18 44 18 68 -1 35
-10 -18 -14 -20 -15 -8 0 9 -5 20 -12 24 -8 5 -9 2 -3 -12z"/>
<path d="M2592 3908 c-16 -16 -15 -33 2 -47 22 -18 48 -2 44 28 -3 28 -27 38
-46 19z m33 -21 c0 -26 -20 -25 -23 2 -3 16 1 22 10 19 7 -3 13 -12 13 -21z"/>
<path d="M2650 3902 c0 -29 23 -54 43 -46 18 7 25 64 7 64 -5 0 -10 -13 -10
-30 0 -16 -4 -30 -10 -30 -5 0 -10 14 -10 30 0 17 -4 30 -10 30 -5 0 -10 -8
-10 -18z"/>
<path d="M2721 3888 c1 -22 3 -26 6 -13 3 11 10 26 15 33 8 9 6 12 -6 12 -12
0 -16 -9 -15 -32z"/>
<path d="M2867 3914 c-12 -12 -8 -41 8 -54 20 -17 47 5 43 34 -3 21 -37 34
-51 20z m40 -20 c8 -21 -13 -42 -28 -27 -13 13 -5 43 11 43 6 0 13 -7 17 -16z"/>
<path d="M2937 3914 c-12 -12 -8 -41 8 -54 20 -17 47 5 43 34 -3 21 -37 34
-51 20z m38 -14 c10 -16 -16 -43 -28 -31 -11 11 -2 41 12 41 5 0 13 -5 16 -10z"/>
<path d="M3060 3890 c0 -16 5 -30 10 -30 6 0 10 14 10 30 0 17 -4 30 -10 30
-5 0 -10 -13 -10 -30z"/>
<path d="M3091 3888 c1 -30 2 -30 8 -9 9 35 31 39 31 6 0 -14 4 -24 9 -21 4 3
6 17 3 31 -3 18 -11 25 -28 25 -21 0 -24 -5 -23 -32z"/>
<path d="M3164 3906 c-9 -25 1 -51 19 -50 22 2 22 -13 0 -20 -14 -4 -14 -4 2
-3 16 2 21 11 23 45 3 37 1 42 -18 42 -11 0 -23 -6 -26 -14z m36 -15 c0 -23
-16 -36 -25 -21 -9 14 1 40 15 40 5 0 10 -9 10 -19z"/>
<path d="M3330 3910 c0 -5 7 -7 15 -4 18 7 21 -31 3 -42 -8 -5 -9 -2 -5 10 5
12 3 16 -5 14 -24 -8 -14 -33 11 -30 32 3 35 6 27 37 -4 16 -13 25 -26 25 -11
0 -20 -4 -20 -10z"/>
<path d="M3397 3913 c-12 -12 -7 -22 13 -28 11 -4 18 -10 15 -15 -3 -5 -13 -6
-22 -3 -11 4 -14 3 -9 -5 4 -7 13 -12 21 -12 22 0 29 22 12 35 -21 15 -22 29
-1 21 8 -3 12 -2 9 4 -7 11 -28 13 -38 3z"/>
<path d="M3555 3899 c-10 -29 19 -59 37 -40 9 9 9 12 1 7 -6 -3 -14 -2 -17 3
-3 5 3 11 14 14 13 3 18 10 14 21 -9 23 -41 20 -49 -5z m35 1 c0 -5 -4 -10
-10 -10 -5 0 -10 5 -10 10 0 6 5 10 10 10 6 0 10 -4 10 -10z"/>
<path d="M3627 3914 c-4 -4 -7 -18 -7 -31 0 -28 26 -41 43 -23 10 10 8 12 -5
7 -10 -3 -20 -2 -23 3 -4 6 3 10 15 10 15 0 20 5 18 17 -3 19 -29 29 -41 17z
m28 -14 c3 -5 -1 -10 -9 -10 -9 0 -16 5 -16 10 0 6 4 10 9 10 6 0 13 -4 16
-10z"/>
<path d="M3681 3888 c1 -30 2 -30 8 -9 9 34 31 39 31 7 0 -14 4 -26 8 -26 5 0
7 14 4 30 -3 24 -9 30 -28 30 -21 0 -24 -5 -23 -32z"/>
<path d="M3787 3913 c-4 -3 -7 -17 -7 -30 0 -27 26 -41 43 -23 9 9 8 11 -8 8
-15 -2 -21 3 -23 20 -3 21 -1 23 18 17 15 -5 20 -4 16 4 -8 12 -29 15 -39 4z"/>
<path d="M3847 3913 c-12 -11 -7 -40 9 -53 21 -18 49 9 39 39 -6 20 -34 28
-48 14z m40 -19 c1 -5 -2 -16 -7 -24 -12 -20 -35 2 -26 25 6 17 27 16 33 -1z"/>
<path d="M3911 3888 c1 -30 2 -30 8 -9 9 35 29 37 34 4 4 -27 4 -27 6 5 1 28
-2 32 -24 32 -22 0 -25 -4 -24 -32z"/>
<path d="M4022 3890 c0 -19 2 -27 5 -17 2 9 2 25 0 35 -3 9 -5 1 -5 -18z"/>
<path d="M4051 3888 c1 -22 3 -26 6 -13 3 11 10 26 15 33 8 9 6 12 -6 12 -12
0 -16 -9 -15 -32z"/>
<path d="M4091 3888 c1 -30 2 -30 8 -9 10 36 31 38 32 4 1 -27 1 -27 8 -4 9
35 29 37 34 4 4 -27 4 -27 6 5 1 32 0 32 -44 32 -44 0 -45 -1 -44 -32z"/>
<path d="M4207 3914 c-4 -4 -7 -18 -7 -31 0 -28 26 -41 43 -23 10 10 8 12 -5
7 -10 -3 -20 -2 -23 3 -4 6 3 10 15 10 15 0 20 5 18 17 -3 19 -29 29 -41 17z
m23 -14 c0 -5 -4 -10 -10 -10 -5 0 -10 5 -10 10 0 6 5 10 10 10 6 0 10 -4 10
-10z"/>
<path d="M4367 3913 c-12 -12 -7 -22 13 -28 11 -4 18 -10 15 -15 -3 -5 -13 -6
-22 -3 -11 4 -14 3 -9 -5 4 -7 13 -12 21 -12 22 0 29 22 12 35 -21 15 -22 29
-1 21 8 -3 12 -2 9 4 -7 11 -28 13 -38 3z"/>
<path d="M4425 3899 c-9 -27 14 -52 39 -43 25 10 17 58 -11 62 -15 2 -23 -3
-28 -19z m42 -5 c9 -23 -11 -38 -26 -20 -13 16 -7 36 10 36 5 0 12 -7 16 -16z"/>
<path d="M2471 3854 c0 -11 3 -14 6 -6 3 7 2 16 -1 19 -3 4 -6 -2 -5 -13z"/>
<path d="M2210 3790 c0 -5 5 -10 11 -10 5 0 7 5 4 10 -3 6 -8 10 -11 10 -2 0
-4 -4 -4 -10z"/>
<path d="M2443 3755 c0 -27 2 -38 4 -22 2 15 2 37 0 50 -2 12 -4 0 -4 -28z"/>
<path d="M2473 3755 c0 -27 2 -38 4 -22 2 15 2 37 0 50 -2 12 -4 0 -4 -28z"/>
<path d="M2734 3786 c-3 -8 -4 -29 -2 -47 3 -32 3 -31 14 14 9 43 1 67 -12 33z"/>
<path d="M3362 3770 c0 -19 2 -27 5 -17 2 9 2 25 0 35 -3 9 -5 1 -5 -18z"/>
<path d="M2658 3785 c-2 -2 -2 -20 0 -40 3 -23 9 -35 19 -35 12 0 13 3 3 15
-6 8 -9 23 -5 34 5 18 -6 36 -17 26z"/>
<path d="M3179 3785 c-8 -7 2 -75 10 -75 4 0 7 16 7 34 -2 35 -8 50 -17 41z"/>
<path d="M2090 3765 c-17 -21 -8 -50 17 -53 26 -4 41 31 23 53 -16 19 -24 19
-40 0z m33 -31 c-3 -8 -9 -14 -13 -14 -14 0 -22 20 -16 37 5 12 9 13 21 3 7
-6 11 -18 8 -26z"/>
<path d="M2253 3773 c-7 -2 -12 -19 -12 -36 2 -28 2 -29 6 -7 3 14 10 31 15
38 11 13 10 13 -9 5z"/>
<path d="M2292 3771 c-23 -14 -10 -56 18 -58 l25 -3 -25 12 -25 11 23 5 c15 2
22 9 20 19 -4 20 -19 26 -36 14z m23 -11 c3 -5 -1 -10 -10 -10 -9 0 -13 5 -10
10 3 6 8 10 10 10 2 0 7 -4 10 -10z"/>
<path d="M2385 3771 c-3 -7 0 -8 9 -5 9 3 16 2 16 -4 0 -5 -9 -12 -21 -15 -27
-7 -20 -31 10 -35 20 -3 22 0 19 29 -3 33 -21 49 -33 30z m25 -41 c0 -5 -4
-10 -10 -10 -5 0 -10 5 -10 10 0 6 5 10 10 10 6 0 10 -4 10 -10z"/>
<path d="M2534 3768 c-4 -6 0 -16 9 -23 21 -15 22 -29 2 -21 -8 3 -15 1 -15
-5 0 -14 42 -7 47 8 2 6 -5 14 -17 18 -11 3 -18 10 -15 15 3 5 13 7 23 4 14
-5 15 -4 2 5 -19 14 -27 14 -36 -1z"/>
<path d="M2600 3765 c-18 -22 -8 -50 20 -52 l25 -3 -25 12 -25 12 28 4 c29 4
33 12 15 30 -16 16 -23 15 -38 -3z m30 -5 c0 -5 -4 -10 -10 -10 -5 0 -10 5
-10 10 0 6 5 10 10 10 6 0 10 -4 10 -10z"/>
<path d="M2783 3773 c-18 -7 -16 -52 3 -60 8 -3 22 1 31 9 12 12 13 20 4 37
-12 21 -17 23 -38 14z m27 -34 c0 -10 -7 -19 -15 -19 -15 0 -21 31 -9 43 11
10 24 -3 24 -24z"/>
<path d="M2844 3766 c-3 -8 -4 -25 -1 -38 4 -21 4 -20 6 5 0 15 6 27 11 27 6
0 10 5 10 10 0 15 -20 12 -26 -4z"/>
<path d="M2983 3773 c-18 -7 -16 -52 3 -60 23 -9 51 23 38 44 -12 19 -23 24
-41 16z m27 -34 c0 -20 -15 -26 -25 -9 -9 15 3 43 15 35 5 -3 10 -15 10 -26z"/>
<path d="M3117 3773 c-4 -3 -7 -20 -6 -37 l1 -31 8 35 c9 36 8 45 -3 33z"/>
<path d="M3233 3773 c-7 -2 -12 -19 -12 -36 2 -28 2 -29 6 -7 3 14 10 31 15
38 11 13 10 13 -9 5z"/>
<path d="M3303 3773 c-8 -3 -13 -22 -12 -46 0 -23 3 -36 6 -29 2 6 13 12 23
12 23 0 33 26 20 51 -11 19 -16 21 -37 12z m27 -34 c0 -20 -15 -26 -25 -9 -9
15 3 43 15 35 5 -3 10 -15 10 -26z"/>
<path d="M2020 3768 c0 -4 4 -18 10 -32 6 -16 6 -27 0 -31 -6 -4 -10 -11 -10
-18 0 -19 27 16 38 51 7 19 7 32 1 32 -5 0 -9 -8 -9 -17 -1 -16 -2 -16 -15 1
-8 11 -15 17 -15 14z"/>
<path d="M2154 3740 c1 -18 7 -26 24 -28 19 -3 22 1 21 30 -2 30 -2 31 -6 6
-5 -34 -30 -37 -36 -5 -3 19 -4 19 -3 -3z"/>
<path d="M2910 3761 c0 -7 5 -21 10 -31 7 -13 7 -21 0 -25 -5 -3 -10 -11 -10
-18 0 -19 27 16 38 51 7 19 7 32 1 32 -5 0 -9 -8 -9 -17 -1 -16 -2 -16 -15 1
-8 11 -15 14 -15 7z"/>
<path d="M3044 3740 c1 -18 7 -26 24 -28 19 -3 22 1 21 30 -2 30 -2 31 -6 6
-5 -34 -30 -37 -36 -5 -3 19 -4 19 -3 -3z"/>
<path d="M3262 3740 c0 -19 2 -27 5 -17 2 9 2 25 0 35 -3 9 -5 1 -5 -18z"/>
<path d="M2031 3496 c-31 -37 13 -97 46 -63 11 10 13 17 5 17 -7 0 -12 -4 -12
-10 0 -16 -27 -11 -34 6 -8 22 2 54 18 54 6 0 18 -6 25 -12 11 -11 13 -10 9 2
-6 21 -42 24 -57 6z"/>
<path d="M2101 3466 c-1 -27 2 -46 6 -42 4 4 8 17 8 28 0 36 23 32 28 -4 l4
-33 1 38 c2 30 -1 37 -17 37 -11 0 -22 6 -24 13 -3 6 -6 -10 -6 -37z"/>
<path d="M2303 3465 c-1 -27 1 -42 4 -32 5 18 5 18 25 0 21 -18 21 -18 9 4 -6
12 -8 30 -4 40 6 15 5 16 -9 5 -14 -11 -17 -10 -21 10 -2 13 -4 1 -4 -27z"/>
<path d="M2557 3502 c6 -4 13 -25 16 -47 l4 -40 1 42 c2 30 7 43 20 46 9 3 1
5 -18 6 -19 0 -30 -3 -23 -7z"/>
<path d="M2850 3501 c0 -5 -9 -11 -21 -14 -30 -8 -23 -61 9 -65 20 -3 22 1 22
42 0 25 -2 46 -5 46 -3 0 -5 -4 -5 -9z m0 -46 c0 -26 -14 -33 -25 -15 -9 14 1
40 15 40 5 0 10 -11 10 -25z"/>
<path d="M3038 3484 c-14 -31 -1 -59 28 -59 28 0 32 45 5 52 -17 4 -19 8 -10
19 9 11 9 14 0 14 -6 0 -17 -12 -23 -26z m37 -34 c0 -7 -6 -15 -12 -17 -8 -3
-13 4 -13 17 0 13 5 20 13 18 6 -3 12 -11 12 -18z"/>
<path d="M3130 3471 c0 -22 5 -43 10 -46 6 -3 10 3 10 14 0 11 8 22 18 24 16
4 16 5 0 6 -26 2 -22 29 5 34 16 3 13 5 -10 6 -32 1 -33 0 -33 -38z"/>
<path d="M3262 3468 c3 -38 6 -43 28 -43 20 0 26 6 28 28 3 22 -1 30 -17 34
-12 3 -21 9 -21 14 0 5 -5 9 -11 9 -6 0 -9 -17 -7 -42z m43 -13 c0 -10 -6 -20
-12 -22 -8 -3 -13 5 -13 22 0 17 5 25 13 23 6 -3 12 -13 12 -23z"/>
<path d="M3645 3499 c-4 -6 -4 -13 -1 -16 3 -4 6 -1 6 5 0 7 7 12 15 12 21 0
19 -24 -5 -45 -27 -25 -25 -35 8 -34 16 1 20 3 10 6 -16 4 -16 6 -2 29 9 13
14 31 10 39 -6 17 -32 20 -41 4z"/>
<path d="M3714 3497 c-3 -9 -4 -28 -2 -44 2 -20 8 -28 23 -28 17 0 20 7 20 40
0 30 -4 41 -18 43 -9 2 -20 -3 -23 -11z m34 -29 c-2 -18 -7 -33 -13 -33 -5 0
-11 15 -13 33 -3 24 1 32 13 32 12 0 16 -8 13 -32z"/>
<path d="M3790 3500 c-9 -6 -10 -10 -3 -10 6 0 14 -17 16 -37 3 -35 4 -34 5
10 1 26 1 47 0 47 -2 0 -10 -5 -18 -10z"/>
<path d="M3856 3498 c-3 -7 -4 -26 -3 -43 2 -23 7 -30 22 -30 17 0 20 7 20 40
0 30 -4 41 -18 43 -9 2 -19 -2 -21 -10z m25 -11 c-1 -12 -15 -9 -19 4 -3 6 1
10 8 8 6 -3 11 -8 11 -12z m7 -39 c-6 -18 -28 -21 -28 -4 0 9 7 16 16 16 9 0
14 -5 12 -12z"/>
<path d="M2177 3484 c-4 -4 -7 -18 -7 -31 0 -27 26 -41 43 -24 9 9 8 11 -4 6
-10 -4 -20 -2 -24 4 -3 7 3 11 15 11 15 0 20 5 18 17 -3 19 -29 29 -41 17z
m28 -14 c3 -5 -1 -10 -10 -10 -9 0 -13 5 -10 10 3 6 8 10 10 10 2 0 7 -4 10
-10z"/>
<path d="M2234 3466 c-3 -14 -3 -30 1 -35 8 -13 32 -14 39 -2 3 5 -2 8 -12 7
-11 -1 -17 6 -17 19 0 13 6 20 17 19 10 -1 15 2 12 7 -10 18 -34 9 -40 -15z"/>
<path d="M2427 3483 c-4 -3 -7 -20 -7 -36 0 -17 3 -27 7 -23 4 4 8 17 8 28 0
36 23 32 28 -4 l4 -33 1 38 c2 30 -2 37 -16 37 -10 0 -22 -3 -25 -7z"/>
<path d="M2658 3484 c-5 -4 -8 -18 -8 -31 0 -12 -4 -23 -10 -23 -5 0 -10 11
-10 25 0 14 -4 25 -10 25 -11 0 -13 -20 -4 -44 8 -20 43 -21 50 -2 8 20 1 60
-8 50z"/>
<path d="M2687 3484 c-4 -4 -7 -18 -7 -31 0 -27 26 -41 43 -24 9 9 8 11 -4 6
-10 -4 -20 -2 -24 4 -3 7 3 11 15 11 15 0 20 5 18 17 -3 19 -29 29 -41 17z
m33 -14 c0 -5 -7 -10 -16 -10 -8 0 -12 5 -9 10 3 6 10 10 16 10 5 0 9 -4 9
-10z"/>
<path d="M2750 3475 c0 -9 7 -18 15 -21 23 -9 18 -26 -6 -19 -15 5 -19 4 -15
-4 12 -19 46 -13 46 9 0 11 -7 20 -15 20 -8 0 -15 5 -15 11 0 6 7 8 16 5 8 -3
12 -2 9 4 -10 16 -35 12 -35 -5z"/>
<path d="M2885 3481 c-3 -6 0 -8 8 -5 8 3 18 1 22 -5 3 -7 -3 -11 -15 -11 -30
0 -22 -34 8 -38 21 -3 23 0 20 30 -3 33 -29 51 -43 29z m30 -41 c-3 -5 -10
-10 -16 -10 -5 0 -9 5 -9 10 0 6 7 10 16 10 8 0 12 -4 9 -10z"/>
<path d="M2946 3468 c5 -13 8 -33 9 -45 0 -13 1 -23 3 -23 6 0 32 69 31 82 0
7 -5 2 -11 -12 l-10 -25 -9 23 c-4 12 -11 22 -14 22 -4 0 -3 -10 1 -22z"/>
<path d="M3207 3484 c-4 -4 -7 -18 -7 -31 0 -27 26 -41 43 -24 9 9 8 11 -4 6
-10 -4 -20 -2 -24 4 -3 7 3 11 15 11 15 0 20 5 18 17 -3 19 -29 29 -41 17z
m28 -14 c3 -5 -1 -10 -10 -10 -9 0 -13 5 -10 10 3 6 8 10 10 10 2 0 7 -4 10
-10z"/>
<path d="M3337 3483 c-10 -10 -8 -65 2 -59 5 3 11 19 13 36 4 29 -1 37 -15 23z"/>
<path d="M3382 3457 c-2 -34 0 -38 21 -35 16 2 23 11 25 31 2 15 -2 27 -8 27
-6 0 -10 -6 -9 -12 3 -24 -1 -38 -10 -38 -6 0 -12 15 -14 33 -4 31 -4 31 -5
-6z"/>
<path d="M3445 3479 c-5 -8 -1 -9 14 -4 11 3 21 2 21 -3 0 -5 -9 -12 -21 -15
-27 -7 -20 -31 10 -35 20 -3 22 0 19 30 -3 34 -29 50 -43 27z m35 -33 c0 -11
-19 -15 -25 -6 -3 5 1 10 9 10 9 0 16 -2 16 -4z"/>
<path d="M3511 3453 c1 -28 3 -31 6 -13 3 14 10 31 15 38 8 9 6 12 -6 12 -12
0 -16 -9 -15 -37z"/>
<path d="M3551 3480 c0 -8 4 -24 8 -35 5 -12 4 -26 -3 -34 -8 -11 -8 -13 3
-10 15 5 45 78 36 88 -3 3 -9 -5 -12 -18 l-6 -23 -13 23 c-8 14 -13 18 -13 9z"/>
<path d="M2390 3455 c0 -14 5 -25 10 -25 6 0 10 11 10 25 0 14 -4 25 -10 25
-5 0 -10 -11 -10 -25z"/>
<path d="M2360 3460 c0 -5 5 -10 11 -10 5 0 7 5 4 10 -3 6 -8 10 -11 10 -2 0
-4 -4 -4 -10z"/>
<path d="M2302 3185 c0 -27 2 -44 5 -37 3 9 9 10 17 3 10 -8 13 -3 13 19 0 23
-3 27 -13 19 -9 -8 -14 -3 -17 18 -2 16 -4 6 -5 -22z"/>
<path d="M2842 3219 c-1 -9 -11 -19 -23 -22 -16 -4 -20 -12 -17 -33 3 -30 16
-38 36 -25 9 5 12 23 9 52 -2 24 -4 37 -5 28z m-4 -51 c-2 -13 -7 -23 -13 -23
-5 0 -11 10 -13 23 -2 15 2 22 13 22 11 0 15 -7 13 -22z"/>
<path d="M3521 3189 c-1 -46 16 -68 40 -53 17 10 10 56 -10 61 -11 3 -22 12
-24 22 -3 9 -5 -5 -6 -30z m34 -22 c0 -26 -20 -25 -23 2 -3 16 1 22 10 19 7
-3 13 -12 13 -21z"/>
<path d="M2024 3196 c-7 -31 0 -54 21 -62 15 -6 50 14 40 24 -2 3 -11 0 -18
-7 -19 -15 -41 11 -32 39 7 23 25 26 44 8 11 -11 13 -10 9 2 -3 8 -16 16 -31
18 -21 3 -28 -2 -33 -22z"/>
<path d="M2102 3180 c0 -33 2 -39 7 -21 9 35 29 37 34 4 4 -27 4 -27 6 5 1 25
-3 32 -18 32 -11 0 -22 6 -24 13 -3 6 -5 -8 -5 -33z"/>
<path d="M2632 3180 c12 -47 25 -51 35 -13 l6 28 10 -28 c12 -38 23 -34 35 13
5 23 6 40 1 40 -5 0 -9 -8 -9 -18 0 -32 -13 -34 -26 -5 l-11 28 -8 -27 c-8
-30 -25 -28 -25 3 0 10 -4 19 -9 19 -5 0 -4 -17 1 -40z"/>
<path d="M3100 3211 c0 -5 -9 -11 -20 -14 -23 -6 -27 -39 -6 -56 25 -21 46 -2
46 40 0 21 -4 39 -10 39 -5 0 -10 -4 -10 -9z m0 -46 c0 -26 -14 -33 -25 -15
-9 14 1 40 15 40 5 0 10 -11 10 -25z"/>
<path d="M3307 3213 c22 -4 22 -5 7 -35 -8 -16 -13 -32 -10 -35 5 -5 36 57 36
72 0 3 -12 4 -27 4 -24 -2 -25 -2 -6 -6z"/>
<path d="M3391 3173 c1 -27 4 -38 6 -26 2 12 12 24 21 26 15 4 15 5 0 6 -26 2
-22 29 5 34 19 4 18 4 -5 6 -27 1 -28 -1 -27 -46z"/>
<path d="M3894 3209 c-4 -8 0 -9 15 -4 27 8 28 -15 1 -40 -24 -22 -17 -35 18
-34 17 1 21 3 10 6 -22 5 -22 8 -2 38 9 13 13 29 9 35 -8 13 -42 13 -51 -1z"/>
<path d="M3967 3213 c-13 -12 -7 -60 8 -73 29 -24 56 20 39 64 -6 16 -35 22
-47 9z m36 -17 c7 -18 -3 -56 -14 -56 -11 0 -23 46 -14 59 9 15 22 14 28 -3z"/>
<path d="M4045 3210 c-3 -5 -2 -10 4 -10 5 0 12 -15 14 -32 3 -29 4 -27 5 10
2 39 -9 55 -23 32z"/>
<path d="M4109 3218 c-1 -2 -3 -20 -4 -40 -4 -40 18 -60 41 -36 19 20 6 78
-17 78 -11 0 -19 -1 -20 -2z m31 -18 c0 -5 -7 -10 -16 -10 -8 0 -12 5 -9 10 3
6 10 10 16 10 5 0 9 -4 9 -10z m0 -46 c0 -17 -22 -14 -28 4 -2 7 3 12 12 12 9
0 16 -7 16 -16z"/>
<path d="M2532 3173 c2 -20 8 -38 13 -40 7 -2 9 12 7 37 -2 22 -8 40 -14 40
-5 0 -8 -17 -6 -37z"/>
<path d="M2177 3194 c-4 -4 -7 -18 -7 -31 0 -28 26 -41 43 -23 10 10 8 12 -5
7 -10 -3 -20 -2 -23 3 -4 6 3 10 15 10 15 0 20 5 18 17 -3 19 -29 29 -41 17z
m33 -14 c0 -5 -7 -10 -15 -10 -8 0 -15 5 -15 10 0 6 7 10 15 10 8 0 15 -4 15
-10z"/>
<path d="M2237 3193 c-12 -11 -7 -40 8 -53 13 -11 18 -11 28 -1 9 10 8 12 -8
9 -14 -2 -20 3 -20 17 0 13 6 20 18 19 9 -1 17 2 17 7 0 10 -34 12 -43 2z"/>
<path d="M2397 3194 c-12 -12 -8 -41 8 -54 20 -17 47 5 43 34 -3 21 -37 34
-51 20z m40 -20 c8 -21 -13 -42 -28 -27 -13 13 -5 43 11 43 6 0 13 -7 17 -16z"/>
<path d="M2463 3170 c2 -28 6 -35 22 -35 16 0 20 7 22 35 1 34 1 34 -5 5 -4
-16 -12 -30 -17 -30 -5 0 -13 14 -17 30 -6 29 -6 29 -5 -5z"/>
<path d="M2735 3179 c-10 -29 19 -59 37 -40 9 9 9 12 1 7 -6 -3 -14 -2 -17 3
-3 5 3 11 14 14 13 3 18 10 14 21 -9 23 -41 20 -49 -5z m35 1 c0 -5 -4 -10
-10 -10 -5 0 -10 5 -10 10 0 6 5 10 10 10 6 0 10 -4 10 -10z"/>
<path d="M2871 3168 c1 -28 2 -29 7 -10 10 33 26 32 34 -3 6 -29 6 -29 5 5 -2
28 -6 36 -24 38 -20 3 -23 -1 -22 -30z"/>
<path d="M2942 3188 c-16 -16 -15 -33 3 -48 13 -11 18 -11 28 0 9 9 9 11 0 6
-6 -3 -14 -2 -17 3 -3 5 4 11 15 14 12 3 19 12 17 19 -6 18 -31 21 -46 6z m28
-8 c0 -5 -4 -10 -10 -10 -5 0 -10 5 -10 10 0 6 5 10 10 10 6 0 10 -4 10 -10z"/>
<path d="M3004 3188 c-4 -6 0 -16 9 -23 22 -16 22 -26 0 -18 -11 4 -14 3 -9
-5 9 -14 16 -15 36 -2 13 9 11 13 -10 31 l-25 20 24 -6 c16 -5 21 -4 17 4 -9
14 -33 14 -42 -1z"/>
<path d="M3134 3189 c-4 -8 0 -9 15 -4 11 3 21 2 21 -3 0 -5 -9 -12 -21 -15
-27 -7 -20 -32 9 -33 18 -1 22 4 22 32 0 27 -4 34 -19 34 -11 0 -23 -5 -27
-11z m36 -33 c0 -11 -19 -15 -25 -6 -3 5 1 10 9 10 9 0 16 -2 16 -4z"/>
<path d="M3203 3158 c1 -27 5 -48 9 -48 3 0 13 20 21 45 9 25 12 45 7 45 -5 0
-10 -10 -13 -22 -4 -23 -4 -23 -14 2 -10 22 -11 20 -10 -22z"/>
<path d="M3457 3193 c-12 -11 -7 -40 8 -53 13 -10 18 -11 28 -1 9 10 8 11 -4
6 -10 -4 -20 -2 -24 4 -3 6 2 11 13 11 24 0 32 8 25 26 -5 14 -35 19 -46 7z
m33 -13 c0 -5 -4 -10 -10 -10 -5 0 -10 5 -10 10 0 6 5 10 10 10 6 0 10 -4 10
-10z"/>
<path d="M3591 3168 c2 -28 2 -29 6 -8 3 14 10 28 17 32 7 5 5 8 -6 8 -14 0
-18 -8 -17 -32z"/>
<path d="M3633 3170 c2 -29 6 -35 25 -36 19 -1 22 3 21 35 -1 36 -1 36 -8 6
-3 -16 -11 -30 -16 -30 -5 0 -13 14 -17 30 -6 29 -6 29 -5 -5z"/>
<path d="M3700 3190 c0 -5 7 -7 15 -4 11 5 15 -1 15 -20 0 -14 -5 -26 -11 -26
-6 0 -9 7 -5 15 6 16 -9 21 -18 6 -9 -13 19 -32 38 -25 17 6 20 22 10 48 -7
17 -44 22 -44 6z"/>
<path d="M3760 3170 c0 -16 5 -30 11 -30 6 0 9 6 6 13 -2 6 0 20 5 30 6 12 5
17 -7 17 -10 0 -15 -10 -15 -30z"/>
<path d="M3800 3197 c0 -2 5 -19 11 -37 9 -26 9 -34 -2 -41 -11 -7 -11 -9 -1
-9 7 0 20 16 28 35 18 44 18 68 -1 35 -10 -18 -14 -20 -15 -8 0 14 -20 39 -20
25z"/>
<path d="M2796 2924 c-10 -25 -7 -74 4 -74 9 0 15 39 11 64 -1 5 4 13 11 17
10 7 9 9 -3 9 -9 0 -20 -7 -23 -16z"/>
<path d="M3613 2895 c0 -27 2 -38 4 -22 2 15 2 37 0 50 -2 12 -4 0 -4 -28z"/>
<path d="M3872 2929 c-1 -9 -11 -19 -22 -22 -23 -6 -28 -52 -7 -60 27 -10 38
9 34 54 -2 24 -4 37 -5 28z m-2 -49 c0 -11 -7 -20 -15 -20 -8 0 -15 9 -15 20
0 11 7 20 15 20 8 0 15 -9 15 -20z"/>
<path d="M4230 2926 c0 -7 -9 -16 -20 -19 -14 -3 -20 -14 -20 -31 0 -21 5 -26
25 -26 23 0 25 4 25 45 0 25 -2 45 -5 45 -3 0 -5 -6 -5 -14z m0 -46 c0 -11 -7
-20 -15 -20 -8 0 -15 9 -15 20 0 11 7 20 15 20 8 0 15 -9 15 -20z"/>
<path d="M2020 2890 c0 -22 5 -40 10 -40 6 0 10 7 10 17 0 14 2 14 20 -2 21
-19 28 -7 8 13 -10 10 -10 17 1 35 14 22 14 22 -8 3 -19 -17 -21 -17 -21 -3 0
10 -4 17 -10 17 -5 0 -10 -18 -10 -40z"/>
<path d="M3078 2919 c-6 -17 3 -69 11 -69 7 0 6 69 -2 76 -3 3 -7 0 -9 -7z"/>
<path d="M3338 2919 c-6 -17 3 -69 11 -69 7 0 6 69 -2 76 -3 3 -7 0 -9 -7z"/>
<path d="M2097 2896 c-13 -33 16 -63 44 -45 11 7 9 9 -8 9 -13 0 -23 5 -23 10
0 6 9 10 21 10 26 0 20 24 -8 28 -11 2 -23 -4 -26 -12z"/>
<path d="M2167 2903 c-22 -21 10 -72 35 -57 9 6 6 10 -12 15 l-25 7 23 7 c26
9 30 35 4 35 -10 0 -22 -3 -25 -7z m30 -9 c-3 -3 -12 -4 -19 -1 -8 3 -5 6 6 6
11 1 17 -2 13 -5z"/>
<path d="M2229 2908 c-7 -16 -5 -79 2 -84 5 -3 9 2 9 10 0 9 5 15 11 14 16 -4
33 27 26 46 -5 13 -44 24 -48 14z m39 -31 c2 -10 -3 -17 -12 -17 -10 0 -16 9
-16 21 0 24 23 21 28 -4z"/>
<path d="M2320 2908 c0 -4 5 -19 10 -34 8 -19 7 -31 -2 -42 -11 -13 -10 -14 1
-11 15 5 45 78 36 88 -3 3 -9 -5 -12 -18 l-6 -23 -13 23 c-7 13 -13 21 -14 17z"/>
<path d="M2387 2904 c-11 -12 -8 -41 6 -53 19 -15 50 9 45 35 -3 19 -38 31
-51 18z m39 -15 c10 -17 -13 -36 -27 -22 -12 12 -4 33 11 33 5 0 12 -5 16 -11z"/>
<path d="M2451 2883 c-1 -31 12 -44 37 -35 6 2 11 18 11 36 -2 30 -2 30 -6 4
-2 -16 -10 -28 -18 -28 -8 0 -16 12 -18 28 -4 26 -4 26 -6 -5z"/>
<path d="M2521 2878 c2 -28 2 -29 6 -8 3 14 10 28 17 32 7 5 5 8 -6 8 -14 0
-18 -8 -17 -32z"/>
<path d="M2597 2903 c-4 -3 -7 -16 -7 -29 0 -23 16 -34 38 -26 20 7 14 21 -8
15 -16 -4 -20 0 -20 17 0 17 4 21 20 17 11 -3 20 -1 20 4 0 10 -33 12 -43 2z"/>
<path d="M2657 2904 c-12 -12 -8 -41 8 -54 20 -17 47 5 43 34 -3 21 -37 34
-51 20z m41 -27 c2 -10 -3 -17 -12 -17 -18 0 -29 16 -21 31 9 14 29 6 33 -14z"/>
<path d="M2720 2881 c0 -17 5 -31 10 -31 6 0 10 11 10 25 0 14 5 25 10 25 6 0
10 -11 10 -25 0 -14 5 -25 11 -25 6 0 9 12 7 28 -2 21 -9 28 -30 30 -25 3 -28
0 -28 -27z"/>
<path d="M2832 2880 c0 -19 2 -27 5 -17 2 9 2 25 0 35 -3 9 -5 1 -5 -18z"/>
<path d="M2861 2878 c1 -22 3 -26 6 -13 3 11 10 26 15 33 8 9 6 12 -6 12 -12
0 -16 -9 -15 -32z"/>
<path d="M2900 2880 c0 -16 5 -30 10 -30 6 0 9 3 9 8 -1 4 -1 15 0 25 2 27 21
20 21 -8 0 -14 5 -25 10 -25 6 0 10 6 9 13 -3 23 1 37 11 37 6 0 10 -12 10
-27 1 -23 2 -25 10 -11 18 30 1 48 -46 48 -42 0 -44 -1 -44 -30z"/>
<path d="M3016 2901 c-3 -5 4 -7 16 -5 l23 5 -22 -12 c-36 -19 -29 -51 8 -42
15 4 19 13 17 32 -3 26 -31 41 -42 22z m29 -31 c3 -5 -1 -10 -10 -10 -9 0 -13
5 -10 10 3 6 8 10 10 10 2 0 7 -4 10 -10z"/>
<path d="M3122 2880 c0 -19 2 -27 5 -17 2 9 2 25 0 35 -3 9 -5 1 -5 -18z"/>
<path d="M3145 2889 c-5 -16 -2 -26 10 -35 25 -19 47 -6 43 25 -4 35 -43 42
-53 10z m45 -9 c0 -11 -7 -20 -15 -20 -8 0 -15 9 -15 20 0 11 7 20 15 20 8 0
15 -9 15 -20z"/>
<path d="M3219 2898 c0 -7 -2 -21 -4 -30 -2 -10 1 -18 6 -18 5 0 9 11 9 25 0
28 19 35 21 8 1 -10 1 -21 0 -25 0 -5 4 -8 10 -8 6 0 9 12 7 28 -2 19 -9 28
-25 30 -14 2 -23 -2 -24 -10z"/>
<path d="M3381 2878 c2 -28 2 -29 6 -8 3 14 10 28 17 32 7 5 5 8 -6 8 -14 0
-18 -8 -17 -32z"/>
<path d="M3423 2895 c4 -8 2 -17 -4 -20 -15 -10 0 -25 27 -25 14 0 24 6 24 14
0 28 -12 46 -32 46 -14 0 -18 -5 -15 -15z m27 -25 c0 -5 -4 -10 -10 -10 -5 0
-10 5 -10 10 0 6 5 10 10 10 6 0 10 -4 10 -10z"/>
<path d="M3480 2899 c0 -8 6 -24 14 -35 14 -18 15 -18 26 10 6 16 8 31 5 34
-3 4 -9 -4 -12 -17 l-6 -23 -13 23 c-9 16 -13 19 -14 8z"/>
<path d="M3547 2903 c-23 -22 7 -69 33 -53 12 8 10 10 -7 10 -16 0 -21 6 -20
20 1 11 7 20 15 20 7 0 10 -4 7 -10 -3 -5 -1 -10 4 -10 6 0 11 7 11 15 0 15
-31 21 -43 8z"/>
<path d="M3664 2895 c-4 -8 -3 -23 2 -32 4 -10 6 -24 5 -30 -3 -19 36 -16 43
3 3 9 6 29 6 45 0 24 -4 29 -25 29 -14 0 -28 -7 -31 -15z m36 -15 c0 -11 -4
-20 -9 -20 -14 0 -23 18 -16 30 10 17 25 11 25 -10z m0 -40 c0 -5 -5 -10 -11
-10 -5 0 -7 5 -4 10 3 6 8 10 11 10 2 0 4 -4 4 -10z"/>
<path d="M3730 2886 c0 -34 24 -51 44 -31 18 19 21 41 6 50 -6 4 -10 -5 -10
-19 0 -14 -4 -26 -10 -26 -5 0 -10 11 -10 25 0 14 -4 25 -10 25 -5 0 -10 -11
-10 -24z"/>
<path d="M3802 2880 c0 -19 2 -27 5 -17 2 9 2 25 0 35 -3 9 -5 1 -5 -18z"/>
<path d="M3907 2904 c-12 -12 -8 -52 6 -57 8 -3 20 -1 28 4 11 7 9 9 -8 9 -16
0 -21 6 -20 20 1 11 7 20 15 20 7 0 10 -4 7 -10 -3 -5 -1 -10 5 -10 16 0 6 24
-11 28 -8 1 -18 0 -22 -4z"/>
<path d="M3965 2901 c-3 -5 4 -16 15 -24 11 -7 17 -17 13 -20 -3 -4 -12 -2
-20 4 -8 7 -13 8 -13 1 0 -12 29 -24 41 -16 14 8 11 25 -8 41 -17 14 -17 14 0
9 9 -3 17 -1 17 4 0 13 -37 13 -45 1z"/>
<path d="M4063 2896 c3 -8 2 -18 -4 -22 -17 -10 10 -32 32 -27 30 8 22 57 -10
61 -18 3 -22 0 -18 -12z m27 -26 c0 -5 -4 -10 -10 -10 -5 0 -10 5 -10 10 0 6
5 10 10 10 6 0 10 -4 10 -10z"/>
<path d="M4120 2880 c0 -16 5 -30 10 -30 6 0 10 11 10 25 0 14 5 25 10 25 6 0
10 -11 10 -25 0 -14 4 -25 8 -25 5 0 8 10 6 23 -1 12 -3 25 -3 30 -1 4 -12 7
-26 7 -21 0 -25 -5 -25 -30z"/>
<path d="M3281 2844 c0 -11 3 -14 6 -6 3 7 2 16 -1 19 -3 4 -6 -2 -5 -13z"/>
<path d="M2933 2745 c-1 -27 1 -42 4 -32 5 18 6 18 24 1 20 -18 27 -6 7 14 -8
8 -8 15 2 29 12 15 12 16 0 6 -20 -18 -28 -16 -33 10 -2 12 -4 0 -4 -28z"/>
<path d="M3291 2745 c1 -40 3 -44 8 -21 8 39 24 39 32 1 l7 -30 1 33 c1 23 -4
35 -16 39 -10 4 -21 11 -25 17 -4 6 -7 -11 -7 -39z"/>
<path d="M3591 2745 c1 -40 3 -44 8 -21 9 42 29 44 34 4 l4 -33 1 33 c2 23 -3
35 -15 39 -10 4 -21 11 -25 17 -4 6 -7 -11 -7 -39z"/>
<path d="M3830 2781 c0 -5 -9 -11 -21 -14 -16 -4 -20 -12 -17 -34 2 -22 8 -28
28 -28 22 0 25 4 27 43 1 23 -2 42 -8 42 -5 0 -9 -4 -9 -9z m0 -46 c0 -26 -14
-33 -25 -15 -9 14 1 40 15 40 5 0 10 -11 10 -25z"/>
<path d="M3059 2775 c-7 -6 2 -75 10 -75 3 0 6 16 5 35 -1 35 -6 49 -15 40z"/>
<path d="M3249 2774 c-3 -21 3 -60 10 -67 4 -4 7 8 7 27 -1 32 -14 63 -17 40z"/>
<path d="M2026 2763 c-3 -4 -5 -20 -5 -37 l1 -31 7 29 c9 43 31 45 32 4 l1
-33 7 29 c9 42 29 44 34 4 l5 -33 -2 35 c-1 32 -3 34 -37 36 -21 2 -40 0 -43
-3z"/>
<path d="M2137 2763 c-13 -13 -7 -54 9 -60 24 -9 46 24 33 48 -10 19 -30 25
-42 12z m33 -34 c0 -20 -15 -26 -25 -9 -9 15 3 43 15 35 5 -3 10 -15 10 -26z"/>
<path d="M2201 2733 c1 -28 3 -31 6 -13 3 14 10 31 15 38 8 9 6 12 -6 12 -12
0 -16 -9 -15 -37z"/>
<path d="M2247 2764 c-4 -4 -7 -18 -7 -31 0 -27 26 -41 43 -24 9 9 8 11 -4 6
-10 -4 -20 -2 -24 4 -3 7 3 11 15 11 15 0 20 5 18 17 -3 19 -29 29 -41 17z
m33 -14 c0 -5 -7 -10 -16 -10 -8 0 -12 5 -9 10 3 6 10 10 16 10 5 0 9 -4 9
-10z"/>
<path d="M2367 2763 c-11 -11 -8 -65 3 -58 6 3 10 17 10 31 0 13 5 24 10 24 6
0 10 -14 10 -32 0 -24 3 -29 11 -21 17 17 2 63 -20 63 -10 0 -21 -3 -24 -7z"/>
<path d="M2463 2728 c1 -27 5 -48 8 -48 8 0 40 82 34 88 -2 3 -9 -6 -14 -19
l-9 -24 -10 25 c-9 22 -10 19 -9 -22z"/>
<path d="M2527 2763 c-13 -13 -7 -54 9 -60 24 -9 46 24 33 48 -10 19 -30 25
-42 12z m29 -39 c-5 -13 -10 -14 -18 -6 -6 6 -8 18 -4 28 5 13 10 14 18 6 6
-6 8 -18 4 -28z"/>
<path d="M2593 2738 c1 -26 7 -34 25 -36 20 -3 22 1 21 35 -1 35 -2 36 -8 9
-8 -40 -28 -44 -35 -7 l-6 31 3 -32z"/>
<path d="M2659 2768 c-6 -14 -6 -59 1 -63 4 -3 10 11 12 30 2 19 0 35 -4 35
-4 0 -9 -1 -9 -2z"/>
<path d="M2730 2723 c0 -26 4 -43 8 -37 4 6 15 13 25 17 27 10 19 61 -10 65
-21 3 -23 -1 -23 -45z m35 12 c0 -10 -6 -20 -12 -22 -8 -3 -13 5 -13 22 0 17
5 25 13 23 6 -3 12 -13 12 -23z"/>
<path d="M2800 2755 c-17 -21 -2 -50 26 -50 14 0 19 7 19 30 0 34 -24 45 -45
20z m35 -20 c0 -10 -6 -20 -12 -22 -8 -3 -13 5 -13 22 0 17 5 25 13 23 6 -3
12 -13 12 -23z"/>
<path d="M2870 2755 c-24 -29 18 -72 43 -45 9 10 7 11 -10 5 -20 -5 -23 -3
-23 20 0 22 3 25 21 20 15 -5 19 -4 15 4 -10 15 -31 14 -46 -4z"/>
<path d="M3003 2763 c-18 -7 -16 -52 3 -60 8 -3 21 0 27 6 9 9 8 11 -4 6 -10
-4 -20 -2 -24 4 -3 7 3 11 15 11 15 0 20 5 18 17 -3 18 -16 24 -35 16z m27
-13 c0 -5 -7 -10 -16 -10 -8 0 -12 5 -9 10 3 6 10 10 16 10 5 0 9 -4 9 -10z"/>
<path d="M3125 2745 c4 -16 11 -34 16 -39 15 -16 10 16 -7 44 l-15 25 6 -30z"/>
<path d="M3157 2764 c-10 -11 -9 -36 2 -30 5 3 12 -4 15 -17 7 -21 7 -21 16
-2 5 11 9 27 9 35 0 9 -4 7 -9 -5 -8 -19 -8 -19 -17 3 -5 13 -12 20 -16 16z"/>
<path d="M3223 2735 c0 -22 2 -30 4 -17 2 12 2 30 0 40 -3 9 -5 -1 -4 -23z"/>
<path d="M3390 2755 c-17 -21 -8 -50 17 -53 26 -4 41 31 23 53 -16 19 -24 19
-40 0z m37 -11 c8 -21 -13 -42 -28 -27 -13 13 -5 43 11 43 6 0 13 -7 17 -16z"/>
<path d="M3521 2733 c1 -28 3 -31 6 -13 3 14 10 31 15 38 8 9 6 12 -6 12 -12
0 -16 -9 -15 -37z"/>
<path d="M3665 2761 c-3 -7 0 -8 9 -5 9 3 16 1 16 -5 0 -6 -7 -11 -15 -11 -8
0 -15 -9 -15 -20 0 -15 7 -20 26 -20 23 0 25 3 22 32 -3 33 -29 50 -43 29z
m30 -41 c-3 -5 -10 -10 -16 -10 -5 0 -9 5 -9 10 0 6 7 10 16 10 8 0 12 -4 9
-10z"/>
<path d="M3728 2740 c-3 -17 -1 -33 4 -36 4 -3 8 11 8 30 0 44 -6 47 -12 6z"/>
<path d="M3756 2759 c6 -8 10 -22 9 -31 -2 -10 1 -21 7 -24 5 -4 8 7 6 27 -2
18 -10 35 -18 37 -12 4 -13 2 -4 -9z"/>
<path d="M3861 2760 c0 -8 4 -24 8 -35 5 -12 4 -26 -3 -34 -8 -11 -8 -13 3
-10 15 5 45 78 36 88 -3 3 -9 -5 -12 -18 l-6 -23 -13 23 c-8 14 -13 18 -13 9z"/>
<path d="M3954 2759 c-5 -9 -2 -10 9 -6 9 3 19 2 22 -2 2 -5 -5 -11 -16 -14
-27 -7 -20 -31 10 -35 20 -3 22 0 19 30 -3 34 -29 50 -44 27z m31 -39 c-3 -5
-10 -10 -16 -10 -5 0 -9 5 -9 10 0 6 7 10 16 10 8 0 12 -4 9 -10z"/>
<path d="M4020 2723 c0 -26 4 -43 8 -37 4 6 15 13 25 17 27 10 19 61 -10 65
-21 3 -23 -1 -23 -45z m35 12 c0 -10 -6 -20 -12 -22 -8 -3 -13 5 -13 22 0 17
5 25 13 23 6 -3 12 -13 12 -23z"/>
<path d="M4090 2723 c0 -26 4 -43 8 -37 4 6 15 13 25 17 27 10 19 61 -10 65
-21 3 -23 -1 -23 -45z m35 12 c0 -10 -6 -20 -12 -22 -8 -3 -13 5 -13 22 0 17
5 25 13 23 6 -3 12 -13 12 -23z"/>
<path d="M2330 2736 c0 -14 5 -28 10 -31 6 -4 10 7 10 24 0 17 -4 31 -10 31
-5 0 -10 -11 -10 -24z"/>
<path d="M3452 2733 c2 -22 8 -28 27 -28 26 0 35 22 20 46 -6 10 -9 6 -9 -13
0 -16 -4 -28 -9 -28 -12 0 -23 29 -15 41 3 5 0 9 -6 9 -6 0 -10 -12 -8 -27z"/>
<path d="M2733 2383 c9 -2 23 -2 30 0 6 3 -1 5 -18 5 -16 0 -22 -2 -12 -5z"/>
<path d="M3963 2383 c9 -2 23 -2 30 0 6 3 -1 5 -18 5 -16 0 -22 -2 -12 -5z"/>
<path d="M2654 2348 l-19 -23 23 19 c12 11 22 21 22 23 0 8 -8 2 -26 -19z"/>
<path d="M3690 2356 c0 -2 8 -10 18 -17 15 -13 16 -12 3 4 -13 16 -21 21 -21
13z"/>
<path d="M3897 2324 c-4 -4 -7 -43 -7 -86 l0 -78 74 0 c92 0 98 6 94 97 l-3
68 -75 3 c-42 1 -79 0 -83 -4z m142 -80 c9 -8 -5 -10 -66 -6 -35 2 -63 7 -63
11 0 8 121 3 129 -5z"/>
<path d="M2730 2312 c-6 -2 -10 -30 -10 -62 0 -63 6 -70 63 -70 49 0 58 11 59
69 0 29 -2 55 -5 58 -6 6 -92 10 -107 5z m100 -72 l0 -40 -50 0 -50 0 0 40 0
40 50 0 50 0 0 -40z"/>
<path d="M2782 2233 c2 -10 10 -18 18 -18 22 0 18 29 -3 33 -14 3 -18 -1 -15
-15z"/>
<path d="M3010 2276 c0 -7 -9 -16 -21 -19 -28 -7 -21 -41 9 -45 20 -3 22 1 22
37 0 23 -2 41 -5 41 -3 0 -5 -6 -5 -14z m0 -41 c0 -8 -4 -15 -10 -15 -5 0 -10
7 -10 15 0 8 5 15 10 15 6 0 10 -7 10 -15z"/>
<path d="M4343 2250 c0 -25 2 -35 4 -22 2 12 2 32 0 45 -2 12 -4 2 -4 -23z"/>
<path d="M4373 2250 c0 -25 2 -35 4 -22 2 12 2 32 0 45 -2 12 -4 2 -4 -23z"/>
<path d="M2911 2249 c-6 -18 -11 -32 -11 -33 0 -1 14 -1 30 -1 17 0 30 0 30 1
0 12 -24 64 -30 64 -4 0 -13 -14 -19 -31z m25 -16 c-10 -10 -19 5 -10 18 6 11
8 11 12 0 2 -7 1 -15 -2 -18z"/>
<path d="M3070 2270 c0 -5 -7 -10 -15 -10 -9 0 -15 -9 -15 -25 0 -18 5 -25 20
-25 16 0 20 7 20 35 0 19 -2 35 -5 35 -3 0 -5 -4 -5 -10z m0 -35 c0 -8 -4 -15
-10 -15 -5 0 -10 7 -10 15 0 8 5 15 10 15 6 0 10 -7 10 -15z"/>
<path d="M3127 2273 c-7 -11 3 -63 12 -63 8 0 6 58 -2 66 -3 3 -7 2 -10 -3z"/>
<path d="M3363 2245 c0 -22 2 -30 4 -17 2 12 2 30 0 40 -3 9 -5 -1 -4 -23z"/>
<path d="M3550 2270 c0 -5 -9 -10 -20 -10 -15 0 -20 -7 -20 -25 0 -14 4 -25 9
-25 5 0 7 10 4 21 -4 16 -2 20 8 17 8 -3 13 -13 13 -22 -1 -9 2 -16 7 -16 5 0
9 16 9 35 0 19 -2 35 -5 35 -3 0 -5 -4 -5 -10z"/>
<path d="M4103 2245 c0 -22 2 -30 4 -17 2 12 2 30 0 40 -3 9 -5 -1 -4 -23z"/>
<path d="M4248 2268 c-6 -16 3 -58 11 -58 4 0 5 16 3 35 -4 37 -8 43 -14 23z"/>
<path d="M2612 2245 c0 -16 2 -22 5 -12 2 9 2 23 0 30 -3 6 -5 -1 -5 -18z"/>
<path d="M3160 2236 c0 -28 24 -41 40 -21 16 20 5 45 -20 45 -14 0 -20 -7 -20
-24z m33 8 c9 -9 -4 -35 -14 -28 -5 3 -9 12 -9 20 0 14 12 19 23 8z"/>
<path d="M3246 2244 c-9 -22 1 -34 27 -33 17 1 18 2 5 6 -10 2 -18 11 -18 20
0 9 6 13 15 9 8 -3 15 -1 15 4 0 16 -37 11 -44 -6z"/>
<path d="M3314 2252 c18 -8 18 -9 3 -15 -19 -7 -23 -27 -6 -27 5 0 7 5 4 10
-3 6 -1 10 4 10 6 0 11 -4 11 -10 0 -5 5 -10 11 -10 6 0 9 10 7 23 -2 15 -11
23 -28 24 -21 2 -22 1 -6 -5z"/>
<path d="M3390 2237 c0 -27 25 -43 36 -25 4 6 3 8 -4 4 -6 -3 -13 -2 -17 4 -3
6 3 10 15 10 28 0 21 24 -8 28 -18 3 -22 -2 -22 -21z"/>
<path d="M3451 2233 c2 -24 2 -25 6 -5 5 27 23 29 23 2 0 -11 5 -20 10 -20 11
0 13 11 4 34 -3 9 -15 16 -25 16 -14 0 -19 -7 -18 -27z"/>
<path d="M3588 2254 c10 -5 9 -9 -5 -19 -15 -12 -16 -16 -4 -27 12 -11 13 -10
8 5 -4 9 -2 17 3 17 6 0 10 -4 10 -10 0 -5 5 -10 11 -10 20 0 5 45 -16 47 -11
2 -14 0 -7 -3z"/>
<path d="M3631 2233 c1 -22 2 -23 6 -8 3 11 10 23 17 27 7 5 5 8 -6 8 -13 0
-18 -7 -17 -27z"/>
<path d="M4131 2233 c2 -24 2 -25 6 -5 2 12 8 22 13 22 5 0 11 -10 13 -22 4
-20 4 -19 6 5 1 21 -4 27 -19 27 -15 0 -20 -6 -19 -27z"/>
<path d="M4190 2252 c0 -4 9 -15 20 -25 11 -9 20 -12 20 -7 0 6 -8 14 -17 17
-15 6 -15 7 3 14 17 7 17 8 -3 8 -13 1 -23 -2 -23 -7z"/>
<path d="M4294 2251 c18 -7 18 -8 3 -14 -19 -7 -23 -27 -6 -27 5 0 7 5 4 10
-3 6 -1 10 4 10 6 0 11 -4 11 -10 0 -5 4 -10 9 -10 4 0 6 11 3 25 -3 18 -11
25 -26 24 -20 0 -20 -1 -2 -8z"/>
<path d="M4434 2252 c18 -8 18 -9 3 -15 -26 -10 -20 -27 9 -27 21 0 25 4 22
23 -2 15 -11 23 -28 24 -21 2 -22 1 -6 -5z"/>
<path d="M4480 2224 c0 -21 4 -33 10 -29 6 3 7 17 4 31 -5 18 -2 24 11 24 12
0 16 -6 12 -20 -3 -11 -1 -20 4 -20 5 0 9 11 9 25 0 20 -5 25 -25 25 -22 0
-25 -4 -25 -36z"/>
<path d="M4540 2225 c0 -19 5 -35 10 -35 6 0 10 14 10 30 0 17 5 30 11 30 6 0
9 -9 6 -20 -3 -11 -1 -20 4 -20 5 0 9 11 9 25 0 20 -5 25 -25 25 -22 0 -25 -4
-25 -35z"/>
<path d="M4195 2210 c3 -5 8 -10 11 -10 2 0 4 5 4 10 0 6 -5 10 -11 10 -5 0
-7 -4 -4 -10z"/>
<path d="M1970 1918 c-48 -33 -72 -70 -77 -120 -10 -88 57 -167 146 -175 61
-6 127 28 153 77 22 42 24 120 3 160 -39 76 -155 105 -225 58z m90 -103 c0
-20 5 -25 25 -25 14 0 25 -4 25 -10 0 -5 -11 -10 -25 -10 -20 0 -25 -5 -25
-26 0 -14 -4 -23 -10 -19 -5 3 -10 15 -10 26 0 12 -7 19 -20 19 -11 0 -20 5
-20 10 0 6 9 10 20 10 15 0 20 7 20 25 0 14 5 25 10 25 6 0 10 -11 10 -25z"/>
<path d="M2422 1790 c0 -14 2 -19 5 -12 2 6 2 18 0 25 -3 6 -5 1 -5 -13z"/>
<path d="M2740 1806 c0 -2 7 -7 16 -10 8 -3 12 -2 9 4 -6 10 -25 14 -25 6z"/>
<path d="M2920 1806 c0 -2 7 -7 16 -10 8 -3 12 -2 9 4 -6 10 -25 14 -25 6z"/>
<path d="M2977 1803 c-3 -5 5 -8 18 -8 13 0 21 3 18 8 -2 4 -10 7 -18 7 -8 0
-16 -3 -18 -7z"/>
<path d="M2722 1775 c0 -16 2 -22 5 -12 2 9 2 23 0 30 -3 6 -5 -1 -5 -18z"/>
<path d="M3082 1775 c0 -16 2 -22 5 -12 2 9 2 23 0 30 -3 6 -5 -1 -5 -18z"/>
<path d="M2650 1771 c0 -11 4 -22 9 -25 4 -3 6 6 3 19 -5 30 -12 33 -12 6z"/>
<path d="M3181 1774 c0 -11 3 -14 6 -6 3 7 2 16 -1 19 -3 4 -6 -2 -5 -13z"/>
<path d="M2934 1760 c0 -13 4 -16 10 -10 7 7 7 13 0 20 -6 6 -10 3 -10 -10z"/>
<path d="M3006 1767 c3 -10 9 -15 12 -12 3 3 0 11 -7 18 -10 9 -11 8 -5 -6z"/>
<path d="M3040 1761 c0 -10 19 -25 25 -20 1 2 -3 10 -11 17 -8 7 -14 8 -14 3z"/>
<path d="M3110 1761 c0 -6 4 -13 10 -16 6 -3 7 1 4 9 -7 18 -14 21 -14 7z"/>
<path d="M3783 5515 c0 -14 3 -25 8 -25 5 0 9 11 9 25 0 14 -4 25 -9 25 -5 0
-8 -11 -8 -25z"/>
<path d="M3985 5529 c4 -6 13 -8 21 -5 8 3 11 0 8 -9 -3 -8 -13 -16 -22 -18
-10 -3 0 -5 21 -6 33 -1 37 2 37 24 0 22 -4 25 -36 25 -22 0 -33 -4 -29 -11z
m52 -21 c-3 -8 -6 -5 -6 6 -1 11 2 17 5 13 3 -3 4 -12 1 -19z"/>
<path d="M3733 5493 c9 -2 23 -2 30 0 6 3 -1 5 -18 5 -16 0 -22 -2 -12 -5z"/>
<path d="M4240 4695 c0 -8 7 -15 15 -15 8 0 15 7 15 15 0 8 -7 15 -15 15 -8 0
-15 -7 -15 -15z"/>
<path d="M2347 4914 c-4 -4 -7 -25 -7 -46 l0 -38 46 0 45 0 -3 43 c-3 40 -4
42 -38 45 -20 2 -39 0 -43 -4z"/>
<path d="M2346 4812 c-3 -6 -3 -30 0 -55 6 -42 9 -45 40 -49 l34 -4 0 48 c0
26 1 51 3 56 3 11 -70 15 -77 4z"/>
<path d="M5367 7059 c-57 -13 -95 -36 -143 -86 -24 -25 -44 -41 -44 -35 0 5
24 32 54 60 55 53 55 76 -1 41 -42 -26 -60 -57 -57 -96 1 -18 -2 -33 -6 -33
-19 0 -22 -124 -21 -863 2 -555 -1 -787 -8 -782 -6 3 -11 1 -11 -4 0 -6 5 -11
10 -11 6 0 10 -12 9 -27 l-1 -28 -8 25 -8 25 -1 -27 c-1 -16 4 -28 9 -28 7 0
10 -212 8 -647 -1 -357 -5 -628 -8 -603 -4 25 -4 -11 -1 -80 3 -69 6 -737 5
-1485 0 -1274 -6 -1624 -30 -1741 -10 -52 14 -137 54 -196 29 -41 53 -61 104
-87 67 -34 67 -34 140 -23 49 8 483 13 1333 17 1153 4 1311 8 1380 30 20 6 20
6 0 -6 -10 -7 -33 -16 -50 -20 l-30 -7 35 -1 c27 -1 32 -4 20 -11 -30 -21 45
2 94 29 58 31 110 97 126 161 7 25 14 53 17 64 3 12 1 16 -6 12 -7 -5 -11 2
-12 16 0 13 -6 1 -13 -27 -13 -51 -39 -110 -54 -119 -5 -3 3 18 17 47 23 45
27 69 32 192 10 220 -1 6072 -12 6134 -16 97 -71 166 -165 208 -37 17 -117 18
-1379 20 -767 1 -1356 -3 -1378 -8z m2731 -43 c56 -24 49 -30 -8 -8 -42 16
-145 17 -1365 17 -1197 0 -1324 -2 -1362 -16 -47 -18 -56 -17 -20 2 12 7 49
16 82 20 33 3 638 6 1345 5 1233 -1 1287 -2 1328 -20z m-583 -738 c32 -14 32
-22 -5 -61 -16 -18 -30 -35 -30 -39 0 -21 -32 -3 -64 37 l-37 44 28 15 c34 18
73 20 108 4z m155 -53 l0 -65 -60 0 c-33 0 -60 3 -60 7 0 7 111 123 117 123 2
0 3 -29 3 -65z m128 59 c21 -6 23 -11 20 -63 l-3 -56 -40 0 -40 0 -3 50 c-3
38 1 52 14 62 20 15 21 15 52 7z m340 -40 c4 -58 -39 -90 -57 -42 l-8 23 -7
-23 c-6 -16 -14 -22 -29 -20 -17 2 -23 11 -25 41 -4 42 17 59 49 38 11 -6 19
-7 19 -2 0 5 12 12 28 14 15 2 27 5 27 5 0 1 1 -14 3 -34z m-166 -8 c5 -44 0
-56 -22 -56 -25 0 -37 24 -32 61 3 22 9 29 27 29 18 0 24 -6 27 -34z m28 4 c0
-5 -4 -10 -10 -10 -5 0 -10 5 -10 10 0 6 5 10 10 10 6 0 10 -4 10 -10z m0 -50
c0 -5 -4 -10 -10 -10 -5 0 -10 5 -10 10 0 6 5 10 10 10 6 0 10 -4 10 -10z
m183 -412 c4 -199 7 -1330 7 -2515 l0 -2153 -1465 0 -1465 0 0 2515 1 2515
1437 2 c790 2 1446 1 1458 0 20 -4 21 -9 27 -364z m-3036 -5160 c-2 -13 -4 -5
-4 17 -1 22 1 32 4 23 2 -10 2 -28 0 -40z"/>
<path d="M8030 6225 c0 -14 5 -25 10 -25 6 0 10 11 10 25 0 14 -4 25 -10 25
-5 0 -10 -11 -10 -25z"/>
<path d="M8102 6225 c0 -16 2 -22 5 -12 2 9 2 23 0 30 -3 6 -5 -1 -5 -18z"/>
<path d="M5326 5584 c2 -42 4 -77 6 -79 2 -1 18 4 36 11 28 12 32 19 32 51 0
36 0 36 -20 18 -18 -17 -20 -17 -14 -2 3 10 18 20 32 24 24 6 24 7 7 13 -19 7
-19 7 2 18 28 16 58 5 42 -14 -9 -11 -8 -14 5 -14 11 0 16 -10 17 -32 l1 -33
13 30 c9 18 14 23 15 13 0 -24 26 -12 35 15 l7 22 6 -22 c7 -21 25 -20 28 2 1
6 5 20 9 33 5 18 2 22 -14 22 -12 0 -21 -6 -21 -12 0 -9 -4 -8 -10 2 -8 13
-10 12 -10 -2 0 -10 -4 -18 -10 -18 -5 0 -10 6 -10 14 0 10 -22 14 -93 15
l-94 2 3 -77z"/>
<path d="M5623 5646 c9 -7 17 -22 18 -32 0 -19 1 -19 8 0 4 12 19 20 39 22 24
3 30 0 26 -11 -7 -18 21 -20 61 -5 14 5 42 6 63 2 l37 -8 -2 -159 c-2 -88 -6
-215 -9 -282 l-6 -123 81 0 81 0 1 163 c0 89 0 206 -1 259 -2 131 0 136 53
129 l42 -6 5 -70 c4 -60 6 -66 13 -38 5 17 15 34 23 37 8 3 14 13 14 21 0 9 5
13 10 10 6 -3 10 -48 10 -100 0 -52 4 -97 10 -100 6 -3 10 1 10 9 0 9 5 16 10
16 12 0 15 -56 11 -212 l-4 -118 263 0 263 0 -6 38 c-4 20 -7 157 -8 305 l-1
267 -567 0 c-473 -1 -563 -3 -548 -14z m911 -104 c6 -11 -4 -25 -34 -45 -34
-23 -40 -21 -39 11 0 24 1 25 9 7 8 -18 9 -17 9 8 1 22 6 27 25 27 14 0 27 -4
30 -8z m30 -37 c3 -8 1 -15 -4 -15 -6 0 -10 7 -10 15 0 8 2 15 4 15 2 0 6 -7
10 -15z m-178 -22 c-10 -10 -19 5 -10 18 6 11 8 11 12 0 2 -7 1 -15 -2 -18z
m64 2 c0 -8 -7 -15 -15 -15 -8 0 -15 -4 -15 -10 0 -5 -4 -10 -10 -10 -21 0
-10 39 13 43 12 2 23 5 25 6 1 0 2 -6 2 -14z m-525 -45 c-3 -5 -12 -10 -18
-10 -7 0 -6 4 3 10 19 12 23 12 15 0z m755 -39 l0 -48 -182 -5 c-101 -3 -191
-9 -200 -13 -16 -6 -18 -1 -18 38 0 43 1 45 38 51 20 4 87 9 147 13 61 3 112
7 114 9 2 2 26 4 53 4 l48 0 0 -49z m-72 -279 c3 -27 0 -32 -17 -32 -16 0 -21
6 -21 28 0 53 33 56 38 4z"/>
<path d="M6307 5393 c-13 -12 -7 -23 13 -23 11 0 20 7 20 15 0 15 -21 21 -33
8z"/>
<path d="M6580 5130 c0 -5 5 -10 10 -10 6 0 10 5 10 10 0 6 -4 10 -10 10 -5 0
-10 -4 -10 -10z"/>
<path d="M6778 5491 c2 -92 7 -229 12 -306 6 -107 7 -70 3 155 l-5 295 40 1
c21 1 48 6 58 13 15 9 6 11 -46 9 l-65 -2 3 -165z"/>
<path d="M7039 5642 c5 -10 8 -72 5 -137 -2 -66 -1 -195 3 -287 l6 -168 405 0
404 0 -6 128 c-9 160 -25 372 -33 435 l-6 47 -394 0 c-375 0 -393 -1 -384 -18z
m298 -34 c-3 -8 -6 -5 -6 6 -1 11 2 17 5 13 3 -3 4 -12 1 -19z m120 -244 c-3
-3 -12 -4 -19 -1 -8 3 -5 6 6 6 11 1 17 -2 13 -5z m289 -197 c8 3 14 0 14 -6
0 -6 -11 -11 -25 -11 -17 0 -25 6 -25 17 0 13 3 14 11 6 6 -6 18 -9 25 -6z
m-236 -77 c0 -5 -4 -10 -10 -10 -5 0 -10 5 -10 10 0 6 5 10 10 10 6 0 10 -4
10 -10z m160 0 c0 -5 -13 -10 -30 -10 -16 0 -30 5 -30 10 0 6 14 10 30 10 17
0 30 -4 30 -10z"/>
<path d="M8098 5653 c6 -2 18 -2 25 0 6 3 1 5 -13 5 -14 0 -19 -2 -12 -5z"/>
<path d="M5672 5550 c0 -14 2 -19 5 -12 2 6 2 18 0 25 -3 6 -5 1 -5 -13z"/>
<path d="M6080 5525 c0 -26 -4 -35 -16 -35 -13 0 -15 7 -10 30 3 17 1 30 -4
30 -6 0 -9 -94 -8 -252 l3 -253 2 213 c3 200 5 214 22 219 26 7 45 83 21 83
-5 0 -10 -16 -10 -35z"/>
<path d="M5745 5540 c-8 -13 9 -20 24 -11 10 6 9 10 -3 14 -8 3 -18 2 -21 -3z"/>
<path d="M5705 5520 c-3 -5 -1 -10 4 -10 6 0 11 5 11 10 0 6 -2 10 -4 10 -3 0
-8 -4 -11 -10z"/>
<path d="M5630 5503 c0 -13 -96 -45 -140 -47 -17 -1 -30 -4 -30 -7 0 -3 -6 -6
-12 -7 -30 -2 -90 -21 -103 -32 -21 -18 -18 -48 5 -55 27 -9 25 -22 -5 -29
l-25 -6 0 -135 0 -135 30 0 c29 0 30 2 31 48 4 139 15 246 27 250 7 2 12 -5
12 -16 0 -11 6 -22 12 -24 9 -3 13 -40 13 -131 l0 -127 58 0 57 0 2 73 c1 39
3 83 4 97 1 14 2 55 3 93 1 68 8 78 41 57 11 -7 14 -38 13 -167 0 -87 1 -146
4 -130 5 30 13 33 31 15 8 -8 12 -8 12 -1 0 7 12 8 35 3 72 -16 72 -16 80 156
4 85 5 158 1 161 -5 6 -58 -4 -129 -24 -16 -4 -18 2 -15 54 2 47 6 58 20 57 9
-1 19 4 21 10 3 6 -7 11 -24 11 -16 0 -29 -5 -29 -12z"/>
<path d="M7929 5453 c-7 -20 -6 -30 4 -40 22 -22 41 6 27 41 -12 33 -18 33
-31 -1z"/>
<path d="M7946 5203 l-68 -4 6 -67 c3 -37 6 -68 6 -69 0 -2 38 -3 85 -3 l85 0
0 53 c0 69 -9 97 -29 95 -9 -1 -47 -4 -85 -5z m-6 -84 c0 -5 -9 -9 -20 -9 -22
0 -27 16 -7 23 15 5 27 -1 27 -14z m60 1 c0 -5 -5 -10 -11 -10 -5 0 -7 5 -4
10 3 6 8 10 11 10 2 0 4 -4 4 -10z m40 0 c0 -5 -4 -10 -10 -10 -5 0 -10 5 -10
10 0 6 5 10 10 10 6 0 10 -4 10 -10z"/>
<path d="M5442 4870 c0 -25 2 -37 5 -27 5 21 43 23 43 2 0 -8 3 -15 8 -15 9 0
9 66 -1 76 -4 4 -7 0 -7 -9 0 -23 -37 -22 -43 1 -3 9 -5 -3 -5 -28z"/>
<path d="M5693 4870 c0 -25 2 -35 4 -22 2 12 2 32 0 45 -2 12 -4 2 -4 -23z"/>
<path d="M5745 4890 c2 -14 5 -33 5 -42 0 -25 19 -22 29 4 l8 23 7 -23 c10
-31 22 -27 30 9 9 48 6 57 -9 24 -12 -26 -14 -27 -15 -8 0 33 -18 38 -26 7
l-7 -27 -14 29 c-12 26 -13 27 -8 4z"/>
<path d="M5840 4870 c0 -22 5 -40 10 -40 6 0 10 12 10 27 0 29 15 22 23 -12 4
-16 5 -15 6 5 1 22 -27 60 -44 60 -3 0 -5 -18 -5 -40z"/>
<path d="M6193 4870 c2 -34 5 -40 24 -40 12 0 25 5 28 10 10 16 -5 50 -21 50
-8 0 -14 5 -14 10 0 6 -4 10 -9 10 -5 0 -8 -18 -8 -40z m33 -27 c-11 -11 -19
6 -11 24 8 17 8 17 12 0 3 -10 2 -21 -1 -24z"/>
<path d="M5588 4895 c-6 -7 3 -65 11 -65 3 0 6 13 6 29 0 29 -7 45 -17 36z"/>
<path d="M5937 4893 c-7 -10 3 -63 12 -63 7 0 6 58 -1 66 -3 3 -8 2 -11 -3z"/>
<path d="M5527 4884 c-4 -4 -7 -18 -7 -31 0 -18 5 -23 26 -23 22 0 25 4 22 27
-3 27 -26 41 -41 27z m33 -30 c0 -16 -16 -19 -25 -4 -8 13 4 32 16 25 5 -4 9
-13 9 -21z"/>
<path d="M5630 4875 c-17 -21 -5 -45 22 -44 22 0 22 1 3 9 -18 8 -18 9 -2 9
12 1 17 7 15 18 -4 23 -22 27 -38 8z m30 -5 c0 -5 -4 -10 -10 -10 -5 0 -10 5
-10 10 0 6 5 10 10 10 6 0 10 -4 10 -10z"/>
<path d="M5907 4883 c-2 -5 -1 -19 4 -33 7 -23 7 -23 8 8 1 31 -3 40 -12 25z"/>
<path d="M5974 4875 c-9 -23 3 -45 26 -45 11 0 20 4 20 9 0 5 -8 8 -17 7 -10
0 -18 6 -18 14 0 9 7 14 19 12 11 -2 15 1 11 7 -9 16 -35 13 -41 -4z"/>
<path d="M6034 4876 c-9 -24 3 -46 26 -46 17 0 21 5 18 27 -3 31 -34 44 -44
19z m36 -22 c0 -16 -16 -19 -25 -4 -8 13 4 32 16 25 5 -4 9 -13 9 -21z"/>
<path d="M6098 4860 c-3 -16 -1 -30 4 -30 4 0 8 11 8 25 0 14 5 25 10 25 6 0
10 -11 10 -25 0 -14 5 -25 11 -25 6 0 9 6 6 13 -3 8 -1 20 3 28 8 11 10 11 14
-1 12 -39 15 -43 13 -15 -2 27 -6 30 -38 32 -34 3 -37 1 -41 -27z"/>
<path d="M5622 4713 c-5 -10 -6 -29 -1 -43 6 -22 7 -21 8 12 1 20 7 39 14 41
9 4 9 6 0 6 -7 1 -16 -7 -21 -16z"/>
<path d="M5447 4713 c-4 -3 -7 -17 -7 -30 0 -26 26 -41 42 -25 8 8 5 9 -11 5
-18 -4 -21 -1 -21 22 0 22 4 26 20 22 11 -3 20 -1 20 4 0 10 -33 12 -43 2z"/>
<path d="M6080 4709 c0 -5 -4 -8 -9 -4 -6 3 -15 -3 -21 -14 -10 -20 -5 -28 19
-27 13 1 29 56 16 56 -3 0 -5 -5 -5 -11z"/>
<path d="M6236 4707 c3 -10 9 -15 12 -12 3 3 0 11 -7 18 -10 9 -11 8 -5 -6z"/>
<path d="M5850 4680 c0 -16 4 -30 8 -30 5 0 7 14 4 30 -2 17 -6 30 -8 30 -2 0
-4 -13 -4 -30z"/>
<path d="M6176 4693 c-6 -14 -5 -15 5 -6 7 7 10 15 7 18 -3 3 -9 -2 -12 -12z"/>
<path d="M5503 4684 c-7 -20 11 -38 31 -31 17 7 21 32 7 41 -5 4 -7 -3 -4 -14
4 -14 0 -20 -12 -20 -12 0 -16 6 -12 20 6 24 -1 27 -10 4z"/>
<path d="M5560 4675 c0 -14 2 -25 4 -25 2 0 6 11 8 25 3 14 1 25 -3 25 -5 0
-9 -11 -9 -25z"/>
<path d="M5592 4675 c0 -16 2 -22 5 -12 2 9 2 23 0 30 -3 6 -5 -1 -5 -18z"/>
<path d="M5652 4675 c0 -16 2 -22 5 -12 2 9 2 23 0 30 -3 6 -5 -1 -5 -18z"/>
<path d="M5670 4675 c0 -14 2 -25 4 -25 2 0 6 11 8 25 3 14 1 25 -3 25 -5 0
-9 -11 -9 -25z"/>
<path d="M5700 4680 c0 -11 4 -20 8 -20 4 0 8 9 9 20 1 11 -2 20 -8 20 -5 0
-9 -9 -9 -20z"/>
<path d="M5738 4675 c2 -14 6 -25 8 -25 2 0 4 11 4 25 0 14 -4 25 -9 25 -4 0
-6 -11 -3 -25z"/>
<path d="M5768 4675 c2 -14 6 -25 8 -25 2 0 4 11 4 25 0 14 -4 25 -9 25 -4 0
-6 -11 -3 -25z"/>
<path d="M5820 4680 c0 -11 -5 -20 -11 -20 -5 0 -7 5 -4 10 3 6 1 10 -5 10
-18 0 -6 -25 13 -28 12 -3 17 4 17 22 0 14 -2 26 -5 26 -3 0 -5 -9 -5 -20z"/>
<path d="M5882 4675 c0 -16 2 -22 5 -12 2 9 2 23 0 30 -3 6 -5 -1 -5 -18z"/>
<path d="M5903 4684 c-7 -20 11 -38 31 -31 17 7 21 32 7 41 -5 4 -7 -4 -4 -15
4 -16 2 -20 -8 -17 -8 3 -13 13 -13 22 2 20 -5 21 -13 0z"/>
<path d="M5960 4675 c0 -14 2 -25 4 -25 2 0 6 11 8 25 3 14 1 25 -3 25 -5 0
-9 -11 -9 -25z"/>
<path d="M5992 4675 c0 -16 2 -22 5 -12 2 9 2 23 0 30 -3 6 -5 -1 -5 -18z"/>
<path d="M6324 4679 c-3 -6 -1 -16 5 -22 9 -9 11 -8 6 5 -4 11 0 18 12 21 15
4 16 5 1 6 -9 0 -20 -4 -24 -10z"/>
<path d="M6407 4671 c-4 -17 -3 -21 5 -13 5 5 8 16 6 23 -3 8 -7 3 -11 -10z"/>
<path d="M6236 4663 c-6 -14 -5 -15 5 -6 7 7 10 15 7 18 -3 3 -9 -2 -12 -12z"/>
<path d="M5448 4598 c5 -7 12 -24 15 -38 4 -22 4 -21 6 7 0 17 7 34 14 36 6 3
-1 6 -17 6 -22 1 -26 -2 -18 -11z"/>
<path d="M5697 4603 c-10 -10 -8 -61 2 -67 5 -4 16 -3 25 0 21 8 21 60 0 68
-19 7 -19 7 -27 -1z m33 -33 c0 -10 -5 -22 -10 -25 -13 -8 -24 20 -16 41 8 20
26 9 26 -16z"/>
<path d="M5872 4574 c2 -26 8 -39 18 -39 24 0 24 35 0 57 l-21 20 3 -38z m28
-14 c0 -11 -4 -20 -10 -20 -5 0 -10 9 -10 20 0 11 5 20 10 20 6 0 10 -9 10
-20z"/>
<path d="M6030 4573 c0 -29 3 -34 10 -23 8 12 12 13 19 2 6 -10 10 -7 13 12 5
26 -7 46 -29 46 -8 0 -13 -13 -13 -37z m32 12 c0 -5 -5 -11 -11 -13 -6 -2 -11
4 -11 13 0 9 5 15 11 13 6 -2 11 -8 11 -13z"/>
<path d="M5923 4580 c-1 -11 2 -18 8 -15 11 7 12 35 1 35 -4 0 -8 -9 -9 -20z"/>
<path d="M5495 4570 c9 -30 13 -35 21 -27 3 3 -2 16 -11 29 l-17 23 7 -25z"/>
<path d="M5520 4578 c0 -8 6 -21 14 -27 11 -10 16 -8 21 9 4 12 4 24 1 27 -3
4 -6 -2 -6 -13 -1 -19 -1 -19 -15 0 -12 16 -15 17 -15 4z"/>
<path d="M5599 4588 c-6 -15 -4 -48 2 -48 5 0 9 9 9 20 0 27 17 25 23 -2 5
-20 5 -20 4 2 -1 15 -9 26 -19 28 -10 2 -19 2 -19 0z"/>
<path d="M5756 4574 c-9 -23 19 -53 35 -37 15 15 7 47 -12 51 -9 2 -19 -5 -23
-14z m34 -14 c0 -21 -15 -27 -25 -10 -7 12 2 30 16 30 5 0 9 -9 9 -20z"/>
<path d="M5813 4565 c3 -37 31 -42 34 -5 l2 25 -8 -25 c-6 -18 -10 -21 -14
-10 -3 8 -8 22 -11 30 -3 8 -4 2 -3 -15z"/>
<path d="M5957 4584 c-11 -11 -8 -42 4 -50 6 -3 16 -1 22 5 9 9 8 11 -5 6 -11
-4 -18 -2 -18 4 0 6 7 11 16 11 9 0 14 5 12 12 -5 14 -22 21 -31 12z"/>
<path d="M6090 4575 c-11 -13 -11 -19 3 -33 20 -19 41 -5 35 24 -4 24 -22 28
-38 9z m30 -15 c0 -11 -4 -20 -10 -20 -5 0 -10 9 -10 20 0 11 5 20 10 20 6 0
10 -9 10 -20z"/>
<path d="M6144 4576 c-8 -21 13 -46 32 -39 20 8 13 47 -9 51 -9 2 -20 -4 -23
-12z m36 -10 c0 -8 -4 -17 -9 -21 -12 -7 -24 12 -16 25 9 15 25 12 25 -4z"/>
<path d="M6201 4563 c2 -24 2 -25 6 -5 2 12 9 22 14 22 5 0 9 -10 10 -22 l0
-23 9 23 c5 12 12 22 15 22 3 0 10 -10 15 -22 10 -23 10 -23 7 2 -2 21 -8 25
-39 27 -36 3 -38 2 -37 -24z"/>
<path d="M5572 4560 c0 -14 2 -19 5 -12 2 6 2 18 0 25 -3 6 -5 1 -5 -13z"/>
<path d="M5656 4565 c-3 -9 -6 -22 -5 -28 0 -7 5 -1 10 12 5 13 8 26 5 28 -2
2 -6 -3 -10 -12z"/>
<path d="M5441 4453 c1 -21 3 -30 6 -21 2 9 12 19 21 21 15 4 15 5 0 6 -10 0
-18 5 -18 10 0 5 8 12 18 14 13 4 11 5 -5 6 -20 1 -23 -4 -22 -36z"/>
<path d="M5601 4453 c0 -21 3 -31 6 -23 3 8 11 18 17 22 8 5 7 8 -1 8 -19 0
-16 18 5 23 13 4 11 5 -5 6 -20 1 -23 -4 -22 -36z"/>
<path d="M5700 4457 c0 -34 3 -38 22 -35 28 4 36 36 11 45 -10 4 -21 11 -25
17 -4 6 -8 -6 -8 -27z m32 -12 c0 -5 -5 -11 -11 -13 -6 -2 -11 4 -11 13 0 9 5
15 11 13 6 -2 11 -8 11 -13z"/>
<path d="M5810 4470 c0 -11 7 -23 16 -27 13 -5 13 -8 2 -15 -10 -8 -10 -9 2
-5 22 6 20 61 -2 65 -13 2 -18 -3 -18 -18z m30 -5 c0 -8 -4 -15 -10 -15 -5 0
-10 7 -10 15 0 8 5 15 10 15 6 0 10 -7 10 -15z"/>
<path d="M5902 4455 c0 -22 3 -30 5 -17 2 12 8 22 13 22 5 0 11 -10 13 -22 4
-20 4 -19 6 5 1 17 -4 27 -13 27 -8 0 -17 6 -19 13 -3 6 -5 -6 -5 -28z"/>
<path d="M6034 4479 c-4 -7 4 -20 17 -31 l24 -20 -22 5 c-13 3 -23 1 -23 -5 0
-14 43 -5 48 10 2 7 -5 16 -17 19 -12 3 -21 10 -21 15 0 6 9 8 20 5 11 -3 18
-1 14 4 -7 13 -31 11 -40 -2z"/>
<path d="M6245 4478 c-6 -16 -1 -45 8 -54 4 -4 7 0 7 9 0 8 6 18 13 20 10 4
10 6 0 6 -19 1 -16 19 5 24 12 4 11 5 -6 6 -12 0 -25 -5 -27 -11z"/>
<path d="M6351 4458 c-1 -31 3 -38 18 -38 20 0 31 17 24 38 -3 6 -11 12 -18
12 -7 0 -16 6 -18 13 -3 6 -6 -5 -6 -25z m29 -13 c0 -8 -4 -15 -10 -15 -5 0
-10 7 -10 15 0 8 5 15 10 15 6 0 10 -7 10 -15z"/>
<path d="M6477 4458 c8 -46 13 -48 13 -5 0 21 -4 37 -10 37 -5 0 -7 -14 -3
-32z"/>
<path d="M6533 4455 c0 -22 2 -30 4 -17 2 12 2 30 0 40 -3 9 -5 -1 -4 -23z"/>
<path d="M6602 4455 c0 -23 3 -30 5 -17 5 26 30 30 36 5 4 -17 5 -17 6 0 0 10
-7 21 -16 24 -10 4 -21 11 -25 17 -4 6 -7 -7 -6 -29z"/>
<path d="M5867 4473 c-2 -5 -1 -19 4 -33 7 -23 7 -23 8 8 1 31 -3 40 -12 25z"/>
<path d="M6570 4456 c0 -35 15 -40 16 -5 1 16 -3 29 -7 29 -5 0 -9 -11 -9 -24z"/>
<path d="M5490 4445 c0 -14 2 -25 4 -25 2 0 6 11 8 25 3 14 1 25 -3 25 -5 0
-9 -11 -9 -25z"/>
<path d="M5532 4445 c0 -16 2 -22 5 -12 2 9 2 23 0 30 -3 6 -5 -1 -5 -18z"/>
<path d="M5650 4445 c0 -19 5 -25 23 -24 21 0 21 1 2 9 -17 7 -17 9 -2 9 24 1
22 31 -3 31 -15 0 -20 -7 -20 -25z"/>
<path d="M6091 4448 c-1 -22 4 -28 19 -28 15 0 20 6 19 28 -2 23 -2 24 -6 5
-2 -13 -8 -23 -13 -23 -5 0 -11 10 -13 23 -4 19 -4 18 -6 -5z"/>
<path d="M6141 4443 c2 -23 2 -24 6 -5 5 27 30 29 36 2 4 -17 4 -16 3 2 -1 16
-8 24 -23 26 -20 3 -23 -1 -22 -25z"/>
<path d="M6298 4458 c-8 -20 2 -38 20 -38 15 0 15 2 2 10 -13 8 -12 10 3 10
11 0 17 6 15 13 -6 17 -34 21 -40 5z"/>
<path d="M6333 3830 c-30 -12 -46 -43 -30 -60 9 -10 9 -11 0 -6 -10 6 -12 -17
-4 -54 0 -3 14 -14 31 -23 28 -17 29 -17 40 3 7 13 7 20 0 20 -5 0 -10 -4 -10
-10 0 -5 -5 -10 -11 -10 -5 0 -7 5 -4 10 3 6 1 11 -4 11 -6 1 -16 2 -23 3 -6
0 -13 7 -16 15 -3 8 0 11 7 7 6 -4 10 -4 9 1 -4 17 14 52 31 58 9 3 31 3 49 1
34 -4 41 4 19 22 -19 16 -60 22 -84 12z"/>
<path d="M6360 3771 c0 -5 7 -12 16 -15 14 -5 15 -4 4 9 -14 17 -20 19 -20 6z"/>
<path d="M6343 3750 c2 -8 12 -16 23 -17 13 -2 15 -1 4 4 -8 3 -19 11 -23 17
-6 7 -7 6 -4 -4z"/>
<path d="M6030 2920 c0 -5 5 -10 10 -10 6 0 10 5 10 10 0 6 -4 10 -10 10 -5 0
-10 -4 -10 -10z"/>
<path d="M6070 2920 c0 -5 5 -10 10 -10 6 0 10 5 10 10 0 6 -4 10 -10 10 -5 0
-10 -4 -10 -10z"/>
<path d="M6026 2878 c3 -5 18 -8 34 -8 16 0 31 3 34 8 2 4 -13 7 -34 7 -21 0
-36 -3 -34 -7z"/>
<path d="M7956 2298 c-12 -7 -16 -21 -14 -54 l1 -44 39 0 c34 0 38 3 38 25 0
29 -8 32 -25 8 -11 -15 -15 -15 -29 -4 -9 7 -16 19 -16 27 0 19 41 29 51 13 6
-10 9 -8 9 7 0 25 -28 36 -54 22z"/>
<path d="M5882 1818 c-7 -7 -11 -21 -11 -32 1 -21 1 -21 6 -1 3 11 10 26 15
33 13 15 6 16 -10 0z"/>
<path d="M6100 1801 c0 -25 6 -27 13 -6 4 8 2 17 -3 20 -6 4 -10 -3 -10 -14z"/>
<path d="M5986 1803 c7 -4 14 -19 17 -33 4 -22 5 -21 4 4 -1 17 -9 31 -17 33
-10 3 -11 2 -4 -4z"/>
<path d="M6293 1795 c-3 -9 -3 -18 -1 -21 3 -3 8 4 11 16 6 23 -1 27 -10 5z"/>
<path d="M6529 1778 c4 -28 6 -29 9 -9 2 13 0 27 -5 32 -6 6 -7 -3 -4 -23z"/>
<path d="M6564 1795 c-3 -8 -4 -20 -1 -27 3 -7 6 -3 6 9 1 12 7 24 14 26 9 4
9 6 -1 6 -7 1 -15 -6 -18 -14z"/>
<path d="M6631 1779 c-1 -9 7 -23 17 -30 15 -12 16 -12 6 1 -6 8 -14 22 -17
30 -5 13 -6 12 -6 -1z"/>
<path d="M6456 1767 c3 -10 9 -15 12 -12 3 3 0 11 -7 18 -10 9 -11 8 -5 -6z"/>
<path d="M6100 1761 c0 -6 4 -13 10 -16 6 -3 7 1 4 9 -7 18 -14 21 -14 7z"/>
<path d="M6490 1761 c0 -10 19 -25 25 -20 1 2 -3 10 -11 17 -8 7 -14 8 -14 3z"/>
<path d="M8817 7059 c-57 -13 -95 -36 -145 -87 -25 -26 -40 -38 -34 -26 6 11
31 39 56 62 42 39 44 42 21 42 -14 0 -38 -14 -59 -35 -29 -29 -34 -41 -31 -67
2 -19 -2 -43 -11 -57 -14 -20 -16 -115 -15 -822 1 -548 -1 -799 -9 -799 -5 0
-10 -5 -10 -11 0 -5 5 -7 10 -4 6 4 10 -7 10 -25 0 -18 -4 -29 -10 -25 -5 3
-10 1 -10 -4 0 -6 4 -11 8 -11 5 0 8 -946 7 -2102 -1 -1624 -5 -2141 -15
-2268 -18 -236 -17 -276 11 -335 27 -58 80 -114 131 -138 40 -19 130 -39 123
-27 -10 17 108 20 865 21 437 1 1025 4 1305 8 436 6 516 10 553 24 23 9 42 14
42 11 0 -6 -45 -24 -85 -34 l-30 -8 33 -1 c18 -1 31 -5 27 -10 -9 -15 52 5 99
33 68 40 110 107 129 204 4 21 3 31 -3 27 -6 -3 -10 4 -11 17 0 13 -6 1 -13
-27 -12 -49 -32 -95 -42 -95 -2 0 3 15 13 33 13 25 18 72 24 217 11 271 -1
6034 -12 6100 -18 109 -102 196 -209 219 -63 14 -2656 14 -2713 0z m2726 -41
c50 -23 47 -30 -5 -9 -39 14 -166 16 -1358 16 -958 0 -1324 -3 -1350 -11 -19
-7 -44 -15 -55 -19 -11 -3 -7 1 10 11 16 9 55 20 85 24 30 4 636 7 1345 6
1191 -1 1293 -2 1328 -18z m-571 -750 c15 -12 13 -18 -22 -57 l-38 -44 -29 33
c-42 49 -47 61 -32 71 21 13 103 11 121 -3z m148 -43 l0 -55 -61 0 -61 0 54
55 c29 30 56 54 61 55 4 0 7 -25 7 -55z m140 1 l0 -54 -35 -4 -35 -4 0 58 0
58 35 0 35 0 0 -54z m155 -1 c0 -33 -3 -40 -20 -40 -15 0 -21 8 -23 28 -5 39
5 59 25 55 14 -2 18 -13 18 -43z m93 33 c30 -30 -1 -94 -33 -68 -15 13 -21 61
-8 73 10 11 28 8 41 -5z m67 -33 c0 -33 -3 -40 -20 -40 -15 0 -21 8 -23 28 -5
39 5 59 25 55 14 -2 18 -13 18 -43z m-125 15 c0 -5 -5 -10 -11 -10 -5 0 -7 5
-4 10 3 6 8 10 11 10 2 0 4 -4 4 -10z m0 -50 c0 -5 -2 -10 -4 -10 -3 0 -8 5
-11 10 -3 6 -1 10 4 10 6 0 11 -4 11 -10z m-254 -217 c35 -17 36 -19 31 -66
-10 -105 -105 -133 -143 -42 -24 58 -19 89 19 107 43 21 50 21 93 1z m292 -26
c2 -10 -3 -17 -12 -17 -10 0 -16 9 -16 21 0 24 23 21 28 -4z m-2538 6 c0 -3
-7 -15 -17 -25 -15 -17 -14 -18 31 -18 33 0 46 -4 44 -12 -3 -8 -20 -11 -46
-9 -25 1 -42 -2 -42 -8 0 -6 4 -11 9 -11 11 0 24 -31 16 -38 -3 -3 -21 10 -40
28 l-35 34 32 33 c30 31 48 41 48 26z m430 -23 c0 -14 -14 -12 -28 2 -9 9 -15
9 -23 1 -8 -8 -3 -16 20 -27 39 -21 42 -53 5 -62 -26 -7 -65 18 -51 33 4 3 13
1 19 -5 7 -7 18 -12 25 -12 22 0 14 18 -14 32 -36 17 -42 45 -11 57 24 9 58
-2 58 -19z m110 17 c0 -7 10 -17 23 -22 44 -20 18 -99 -27 -82 -12 5 -16 20
-16 62 0 30 5 55 10 55 6 0 10 -6 10 -13z m390 3 c48 -25 43 -94 -7 -106 -54
-14 -87 68 -41 100 27 19 24 19 48 6z m-470 -56 c0 -45 24 -42 28 4 5 48 22
38 22 -12 0 -44 0 -44 -32 -43 -31 2 -33 4 -36 45 -2 25 1 42 7 42 6 0 11 -16
11 -36z m161 3 c1 -20 2 -19 12 6 6 15 14 27 18 27 4 0 12 -12 17 -27 9 -25
11 -25 11 -6 1 12 6 25 13 29 8 5 9 -3 5 -31 -8 -49 -25 -68 -33 -37 -8 28
-20 28 -29 0 -6 -22 -7 -22 -20 7 -8 17 -14 38 -15 48 0 26 20 10 21 -16z
m147 21 c7 -7 12 -26 12 -44 0 -30 -2 -32 -32 -31 -42 2 -51 37 -16 55 l23 12
-22 -6 c-13 -3 -23 -1 -23 4 0 23 38 30 58 10z m39 -9 c6 -21 6 -21 25 2 l20
24 -7 -29 c-10 -47 -33 -96 -44 -96 -14 0 -14 13 -1 26 7 7 6 22 -5 47 -18 43
-18 47 -4 47 6 0 13 -10 16 -21z m1737 -4 c3 -9 -1 -18 -10 -22 -19 -7 -28 2
-21 22 8 19 23 19 31 0z m-4 -55 c0 -11 -7 -20 -15 -20 -15 0 -21 21 -8 33 12
13 23 7 23 -13z m150 -2465 l0 -2275 -1465 0 -1465 0 0 2275 0 2275 1465 0
1465 0 0 -2275z m-3043 -2752 c-3 -10 -5 -4 -5 12 0 17 2 24 5 18 2 -7 2 -21
0 -30z m37 -129 c3 -8 2 -12 -4 -9 -6 3 -10 10 -10 16 0 14 7 11 14 -7z m3076
-28 c0 -2 -8 -10 -17 -17 -16 -13 -17 -12 -4 4 13 16 21 21 21 13z"/>
<path d="M11385 6210 c-3 -5 -1 -10 4 -10 6 0 11 5 11 10 0 6 -2 10 -4 10 -3
0 -8 -4 -11 -10z"/>
<path d="M11480 6225 c0 -14 5 -25 10 -25 6 0 10 11 10 25 0 14 -4 25 -10 25
-5 0 -10 -11 -10 -25z"/>
<path d="M11542 6229 c1 -13 8 -23 13 -21 15 3 12 35 -3 40 -9 3 -13 -3 -10
-19z"/>
<path d="M11161 5906 c-15 -15 -29 -22 -40 -18 -14 5 -14 4 -2 -12 14 -16 16
-15 45 13 16 17 28 33 25 36 -3 3 -16 -6 -28 -19z"/>
<path d="M9490 5885 c0 -16 6 -25 15 -25 9 0 15 9 15 25 0 16 -6 25 -15 25 -9
0 -15 -9 -15 -25z"/>
<path d="M9832 5928 c-26 -26 -2 -74 32 -66 11 2 13 7 6 18 -9 13 -11 13 -20
0 -7 -11 -10 -7 -10 18 0 29 3 33 23 30 13 -2 22 -10 22 -20 0 -9 4 -20 8 -24
4 -4 7 2 7 12 0 24 -18 44 -40 44 -9 0 -21 -5 -28 -12z"/>
<path d="M9680 5870 c0 -5 4 -10 9 -10 6 0 13 5 16 10 3 6 -1 10 -9 10 -9 0
-16 -4 -16 -10z"/>
<path d="M10566 5377 c-3 -18 -8 -86 -11 -152 -3 -66 -8 -157 -12 -202 -5 -72
-4 -83 10 -83 9 0 19 10 21 23 5 25 26 354 26 403 0 45 -28 53 -34 11z"/>
<path d="M9860 5388 c0 -7 -7 -110 -15 -228 -7 -118 -12 -216 -10 -218 2 -3
10 -2 18 1 11 4 17 53 26 209 7 111 14 213 17 226 3 17 0 22 -16 22 -11 0 -20
-6 -20 -12z"/>
<path d="M9554 4756 c4 -61 10 -128 13 -149 l6 -38 17 28 c9 15 27 37 39 47
30 27 128 46 239 46 l92 0 0 40 c0 57 18 52 87 -25 l60 -66 9 111 9 110 -75
-7 c-100 -11 -393 -7 -454 5 l-49 10 7 -112z"/>
<path d="M10254 4819 c14 -124 76 -905 76 -960 0 -69 16 -91 77 -108 50 -14
207 -14 258 0 64 18 72 30 79 127 4 48 14 155 21 237 8 83 19 209 25 280 6 72
18 203 26 293 9 89 14 165 11 168 -3 3 -45 1 -94 -5 -137 -17 -406 -8 -467 15
-16 6 -17 2 -12 -47z m256 -74 c7 -8 10 -22 6 -30 -4 -10 1 -15 14 -15 11 0
28 -9 37 -20 10 -11 25 -20 35 -20 13 0 18 -8 18 -25 0 -18 -5 -25 -18 -25
-11 0 -27 -9 -37 -20 -18 -20 -17 -20 18 -20 33 0 37 -3 37 -25 0 -18 -5 -25
-20 -25 -11 0 -20 -4 -20 -10 0 -5 9 -10 20 -10 15 0 20 -7 20 -25 0 -17 -6
-25 -17 -25 -14 0 -14 -2 2 -20 12 -14 19 -37 19 -73 2 -65 -8 -97 -31 -97
-15 0 -14 -3 5 -16 18 -12 22 -25 22 -65 l0 -49 -75 0 -75 0 0 44 c0 53 22 80
56 72 12 -3 26 -2 29 4 4 6 -12 10 -40 10 -42 0 -46 2 -43 23 3 19 11 23 58
28 l55 6 -57 1 c-55 2 -58 3 -58 27 0 21 5 25 33 26 17 1 43 5 57 9 19 6 11 8
-32 9 -55 1 -58 2 -58 26 0 21 5 25 33 26 29 1 30 2 7 8 -14 4 -31 20 -39 36
-12 25 -12 33 2 57 9 15 12 28 7 28 -19 0 -11 50 8 52 9 0 23 2 29 2 26 2 17
21 -12 26 -24 4 -30 11 -37 44 -11 54 14 85 42 51z m110 -55 c0 -5 -5 -10 -11
-10 -5 0 -7 5 -4 10 3 6 8 10 11 10 2 0 4 -4 4 -10z m-19 -580 c24 -13 27 -81
4 -100 -13 -11 -14 -15 -2 -29 21 -23 28 -107 11 -128 -13 -17 -15 -17 -28 0
-9 12 -12 31 -9 53 7 42 -2 44 -22 4 -10 -20 -23 -30 -38 -30 -33 0 -47 19
-47 62 0 31 4 38 19 38 14 0 21 -8 23 -27 4 -25 5 -26 13 -8 4 11 15 28 23 38
14 16 12 17 -31 17 -40 0 -47 3 -47 19 0 17 8 20 52 23 74 4 77 28 4 28 -53 0
-56 1 -56 25 0 24 3 25 56 25 30 0 64 -5 75 -10z"/>
<path d="M10510 4510 c0 -5 7 -10 15 -10 8 0 15 5 15 10 0 6 -7 10 -15 10 -8
0 -15 -4 -15 -10z"/>
<path d="M10510 4190 c0 -5 5 -10 10 -10 6 0 10 5 10 10 0 6 -4 10 -10 10 -5
0 -10 -4 -10 -10z"/>
<path d="M10560 4190 c0 -5 5 -10 10 -10 6 0 10 5 10 10 0 6 -4 10 -10 10 -5
0 -10 -4 -10 -10z"/>
<path d="M10042 4480 l-53 -60 33 0 c19 0 39 -5 46 -12 9 -9 12 -8 16 3 4 11
15 130 12 129 -1 0 -25 -27 -54 -60z"/>
<path d="M9760 4483 c-44 -23 -64 -63 -55 -110 8 -43 33 -67 112 -108 41 -21
58 -36 58 -50 0 -18 -8 -21 -80 -25 l-80 -5 -2 -37 -3 -38 98 0 c129 0 171 26
172 106 0 55 -23 83 -110 128 -39 21 -69 43 -67 49 2 7 35 15 76 19 40 3 74 8
76 10 2 1 5 19 7 38 l3 35 -85 3 c-65 2 -93 -2 -120 -15z"/>
<path d="M9601 4184 c1 -22 4 -49 7 -62 7 -21 9 -20 50 22 l43 45 -38 7 c-21
4 -44 11 -50 17 -10 7 -13 0 -12 -29z"/>
<path d="M10000 3942 c-22 -10 -81 -17 -162 -20 l-128 -4 0 -42 -1 -41 -40 43
c-23 24 -42 42 -43 40 -2 -2 0 -34 3 -71 4 -43 12 -71 21 -78 35 -22 101 -31
205 -27 140 5 171 19 180 80 4 24 5 64 3 89 l-3 46 -35 -15z"/>
<path d="M8937 3303 c-15 -14 -7 -84 9 -90 38 -14 68 49 41 85 -10 13 -39 16
-50 5z m43 -23 c0 -5 -7 -10 -15 -10 -8 0 -15 5 -15 10 0 6 7 10 15 10 8 0 15
-4 15 -10z m-2 -38 c2 -7 -3 -12 -12 -12 -9 0 -16 7 -16 16 0 17 22 14 28 -4z"/>
<path d="M9200 3285 c-5 -14 -12 -38 -16 -53 -5 -25 -4 -25 9 -9 8 9 19 17 25
17 6 0 16 -8 21 -17 10 -17 10 -17 11 0 0 20 -26 87 -35 87 -3 0 -10 -11 -15
-25z m24 -20 c3 -8 1 -15 -4 -15 -6 0 -10 7 -10 15 0 8 2 15 4 15 2 0 6 -7 10
-15z"/>
<path d="M9441 3258 c1 -29 4 -43 6 -30 3 14 12 22 24 22 10 0 19 5 19 10 0 6
-9 10 -20 10 -11 0 -20 5 -20 10 0 6 9 10 20 10 11 0 20 5 20 10 0 6 -11 10
-25 10 -24 0 -25 -3 -24 -52z"/>
<path d="M9506 3288 c15 -51 24 -68 34 -68 6 0 14 10 19 23 19 50 22 67 12 67
-5 0 -12 -13 -16 -30 -4 -16 -10 -30 -15 -30 -5 0 -11 14 -15 30 -4 17 -11 30
-16 30 -6 0 -7 -10 -3 -22z"/>
<path d="M9590 3259 c0 -31 4 -48 10 -44 6 3 10 16 11 28 l0 22 9 -22 c12 -31
26 -29 38 5 l10 27 1 -33 c1 -47 21 -30 21 18 0 50 -18 61 -33 21 -14 -39 -22
-39 -36 -1 -16 46 -31 36 -31 -21z"/>
<path d="M9754 3302 c-39 -25 -10 -101 34 -88 30 10 30 46 0 46 -18 0 -20 -2
-8 -10 18 -11 6 -25 -15 -16 -10 3 -15 15 -13 28 2 18 9 23 31 21 24 -2 27 0
17 13 -14 15 -29 18 -46 6z"/>
<path d="M10077 3303 c-11 -10 -8 -81 3 -88 6 -3 10 3 10 14 0 14 6 21 20 21
11 0 20 5 20 10 0 6 -9 10 -20 10 -11 0 -20 5 -20 10 0 6 9 10 20 10 11 0 20
5 20 10 0 11 -43 14 -53 3z"/>
<path d="M10376 3295 c-20 -21 -21 -59 0 -75 22 -19 54 12 37 38 -6 9 -16 16
-22 15 -15 -4 -14 14 2 20 6 2 9 7 6 11 -4 4 -14 0 -23 -9z m24 -50 c0 -8 -4
-15 -9 -15 -13 0 -22 16 -14 24 11 11 23 6 23 -9z"/>
<path d="M10650 3259 c0 -31 4 -48 10 -44 6 3 10 17 10 31 0 13 5 24 10 24 6
0 10 -11 10 -25 0 -14 5 -25 10 -25 6 0 10 12 10 26 0 17 -6 28 -20 31 -11 3
-20 12 -20 19 0 8 -4 14 -10 14 -5 0 -10 -23 -10 -51z"/>
<path d="M10767 3303 c-14 -13 -6 -42 13 -48 29 -9 25 -28 -5 -21 -30 8 -33 1
-6 -14 26 -13 51 -3 51 21 0 10 -4 19 -8 19 -5 0 -17 7 -28 16 -18 15 -18 15
9 9 29 -6 38 9 11 19 -20 8 -29 8 -37 -1z"/>
<path d="M10911 3264 c-1 -46 1 -51 20 -50 43 2 53 66 10 66 -11 0 -22 8 -24
18 -3 9 -5 -6 -6 -34z m39 -14 c0 -11 -7 -20 -15 -20 -15 0 -21 21 -8 33 12
13 23 7 23 -13z"/>
<path d="M9897 3294 c-8 -8 3 -66 15 -79 6 -6 7 1 2 19 -4 18 -2 31 5 35 9 6
8 11 -2 19 -8 7 -17 9 -20 6z"/>
<path d="M9835 3274 c-8 -9 -15 -21 -15 -28 0 -21 28 -39 47 -31 16 7 15 9 -7
15 -24 8 -24 8 -2 9 15 1 22 7 22 20 0 25 -26 34 -45 15z m32 -10 c-3 -3 -12
-4 -19 -1 -8 3 -5 6 6 6 11 1 17 -2 13 -5z"/>
<path d="M9010 3251 c0 -30 19 -45 45 -35 17 7 21 64 5 64 -5 0 -10 -11 -10
-25 0 -14 -4 -25 -10 -25 -5 0 -10 11 -10 25 0 14 -4 25 -10 25 -5 0 -10 -13
-10 -29z"/>
<path d="M9085 3263 c16 -40 17 -55 4 -64 -11 -7 -11 -9 3 -9 10 0 22 16 31
45 9 25 12 45 6 45 -5 0 -9 -7 -9 -15 0 -8 -4 -15 -10 -15 -5 0 -10 7 -10 15
0 8 -5 15 -11 15 -7 0 -8 -7 -4 -17z"/>
<path d="M9272 3243 c1 -37 1 -37 5 -5 3 18 10 32 18 32 8 0 15 -14 18 -32 4
-32 4 -32 5 5 2 33 0 37 -23 37 -23 0 -25 -4 -23 -37z"/>
<path d="M9341 3270 c0 -8 4 -24 8 -35 5 -11 4 -25 -1 -32 -7 -9 -7 -13 1 -13
6 0 15 10 20 23 19 51 22 67 12 67 -6 0 -11 -8 -11 -17 0 -15 -2 -14 -15 3
-11 14 -14 15 -14 4z"/>
<path d="M9970 3271 c0 -5 10 -7 23 -5 l22 5 -23 -12 c-28 -15 -25 -44 6 -45
19 -1 22 4 22 32 0 30 -3 34 -25 34 -14 0 -25 -4 -25 -9z m40 -31 c0 -5 -7
-10 -16 -10 -8 0 -12 5 -9 10 3 6 10 10 16 10 5 0 9 -4 9 -10z"/>
<path d="M10140 3250 c0 -16 5 -30 10 -30 6 0 10 11 10 24 0 13 6 27 13 29 6
3 2 6 -10 6 -19 1 -23 -4 -23 -29z"/>
<path d="M10197 3273 c-4 -3 -7 -16 -7 -29 0 -24 28 -40 44 -24 7 7 4 10 -9
11 -18 0 -18 1 2 9 15 6 21 15 17 25 -6 15 -35 21 -47 8z"/>
<path d="M10260 3251 c0 -31 26 -49 44 -31 7 7 2 10 -14 11 l-25 1 23 6 c13 4
23 10 23 15 -1 4 -1 12 -1 17 0 6 -11 10 -25 10 -21 0 -25 -5 -25 -29z"/>
<path d="M10483 3245 c0 -22 2 -30 4 -17 2 12 2 30 0 40 -3 9 -5 -1 -4 -23z"/>
<path d="M10511 3243 c1 -36 2 -36 8 -9 9 42 31 46 31 6 0 -17 4 -29 8 -26 5
3 7 19 4 36 -3 24 -9 30 -28 30 -21 0 -24 -4 -23 -37z"/>
<path d="M10587 3273 c-4 -3 -7 -16 -7 -29 0 -28 29 -40 49 -19 14 14 14 15
-9 13 -17 -2 -25 2 -25 12 0 10 8 14 23 13 13 -2 21 1 17 7 -7 11 -38 13 -48
3z"/>
<path d="M10830 3263 c0 -27 17 -48 40 -49 17 -1 20 4 19 35 -2 30 -3 31 -6 9
-5 -35 -33 -37 -33 -3 0 14 -4 25 -10 25 -5 0 -10 -8 -10 -17z"/>
<path d="M10438 3253 c7 -3 16 -2 19 1 4 3 -2 6 -13 5 -11 0 -14 -3 -6 -6z"/>
<path d="M9763 3055 c0 -27 2 -38 4 -22 2 15 10 27 18 27 8 0 16 -12 18 -27
l4 -28 2 28 c1 21 -4 30 -18 34 -11 3 -22 12 -24 22 -3 9 -5 -6 -4 -34z"/>
<path d="M10003 3055 c0 -27 2 -38 4 -22 2 15 10 27 18 27 8 0 16 -12 18 -27
4 -26 4 -26 6 5 1 25 -3 32 -18 32 -11 0 -22 8 -24 18 -3 9 -5 -5 -4 -33z"/>
<path d="M10403 3055 c0 -27 2 -38 4 -22 2 15 10 27 18 27 8 0 16 -12 18 -27
l4 -28 2 28 c1 21 -4 30 -18 34 -11 3 -22 12 -24 22 -3 9 -5 -6 -4 -34z"/>
<path d="M11033 3055 c0 -27 2 -38 4 -22 2 15 2 37 0 50 -2 12 -4 0 -4 -28z"/>
<path d="M8937 3083 c-24 -23 8 -81 38 -69 16 6 21 36 5 36 -5 0 -7 -7 -3 -16
4 -12 1 -15 -13 -12 -13 2 -19 12 -19 28 0 19 5 25 23 24 12 0 22 3 22 8 0 10
-44 11 -53 1z"/>
<path d="M9220 3055 c0 -19 5 -35 10 -35 6 0 10 6 10 14 0 8 8 17 18 19 16 4
16 5 0 6 -10 0 -18 5 -18 10 0 5 8 12 18 14 10 3 6 5 -10 6 -25 1 -28 -2 -28
-34z"/>
<path d="M9291 3048 c1 -24 3 -35 6 -25 6 22 19 22 31 0 7 -12 10 -6 10 25 1
38 -2 42 -24 42 -22 0 -24 -4 -23 -42z m37 20 c-6 -18 -28 -21 -28 -4 0 9 7
16 16 16 9 0 14 -5 12 -12z"/>
<path d="M9360 3050 c0 -37 2 -40 28 -39 23 2 24 2 5 6 -27 5 -31 30 -5 36 16
4 16 5 0 6 -26 2 -22 19 5 24 19 4 18 4 -5 6 -26 1 -28 -2 -28 -39z"/>
<path d="M9422 3053 c3 -32 7 -38 28 -40 14 -1 18 0 8 3 -10 3 -18 12 -18 19
0 7 8 16 18 18 16 4 16 5 0 6 -10 0 -18 5 -18 10 0 5 8 12 18 14 10 3 6 5 -11
6 -27 1 -28 -1 -25 -36z"/>
<path d="M9524 3076 c-10 -25 0 -61 17 -64 9 -2 19 5 23 14 7 18 -11 47 -25
38 -5 -3 -9 -1 -9 5 0 5 6 12 13 14 9 4 9 6 -1 6 -7 1 -15 -5 -18 -13z m26
-50 c-14 -14 -24 0 -16 21 6 15 8 15 16 3 6 -9 5 -19 0 -24z"/>
<path d="M9968 3079 c-6 -17 3 -69 11 -69 7 0 6 69 -2 76 -3 3 -7 0 -9 -7z"/>
<path d="M10180 3049 c0 -25 4 -38 10 -34 6 4 8 11 5 16 -4 5 4 13 17 18 17 7
19 10 6 10 -10 1 -18 5 -18 10 0 5 8 12 18 14 10 3 6 5 -10 6 -26 1 -28 -2
-28 -40z"/>
<path d="M10491 3086 c-2 -14 22 -76 29 -76 9 0 33 70 26 77 -3 3 -8 -6 -12
-21 -8 -33 -17 -33 -31 2 -6 15 -11 23 -12 18z"/>
<path d="M10620 3055 c0 -19 5 -35 10 -35 6 0 10 16 10 35 0 19 -4 35 -10 35
-5 0 -10 -16 -10 -35z"/>
<path d="M10809 3073 c0 -10 -2 -26 -4 -35 -2 -10 1 -20 6 -24 5 -3 9 5 9 18
l1 23 14 -25 13 -25 11 28 c12 31 26 37 18 7 -3 -11 -1 -23 4 -26 5 -3 9 13 9
35 0 48 -11 53 -29 14 l-13 -28 -14 28 c-17 31 -24 34 -25 10z"/>
<path d="M9070 3051 c0 -17 4 -32 8 -35 4 -2 8 11 8 30 0 19 -4 34 -8 34 -4 0
-8 -13 -8 -29z"/>
<path d="M9012 3043 c2 -18 9 -28 21 -29 12 -1 13 -1 2 3 -22 7 -18 23 6 23
28 0 19 24 -10 28 -19 3 -22 0 -19 -25z"/>
<path d="M9154 3061 c19 -7 19 -8 -3 -14 -28 -7 -23 -31 7 -35 19 -3 22 1 22
27 0 26 -4 31 -22 30 -21 0 -22 -1 -4 -8z m16 -31 c0 -5 -4 -10 -10 -10 -5 0
-10 5 -10 10 0 6 5 10 10 10 6 0 10 -4 10 -10z"/>
<path d="M9612 3040 c0 -19 2 -27 5 -17 2 9 2 25 0 35 -3 9 -5 1 -5 -18z"/>
<path d="M9641 3038 c2 -30 2 -31 6 -5 5 31 23 37 23 8 0 -11 5 -23 11 -26 7
-5 9 3 7 21 -2 21 -9 30 -25 32 -20 3 -23 -1 -22 -30z"/>
<path d="M9704 3055 c-13 -32 23 -63 40 -36 4 5 -3 7 -14 4 -16 -4 -20 0 -20
17 0 17 4 21 20 17 11 -3 18 -1 14 4 -8 14 -34 11 -40 -6z"/>
<path d="M9851 3060 c0 -8 4 -24 9 -35 8 -19 9 -19 16 4 l7 23 12 -22 c12 -23
12 -22 23 9 7 18 7 31 1 31 -5 0 -9 -8 -9 -17 0 -15 -1 -15 -13 1 -13 18 -14
18 -21 0 -8 -18 -8 -18 -16 1 -5 12 -9 14 -9 5z"/>
<path d="M9942 3040 c0 -19 2 -27 5 -17 2 9 2 25 0 35 -3 9 -5 1 -5 -18z"/>
<path d="M10114 3061 c19 -7 19 -8 -3 -14 -28 -7 -23 -31 7 -35 19 -3 22 1 22
27 0 26 -4 31 -22 30 -21 0 -22 -1 -4 -8z m11 -31 c-3 -5 -11 -10 -16 -10 -6
0 -7 5 -4 10 3 6 11 10 16 10 6 0 7 -4 4 -10z"/>
<path d="M10241 3038 c1 -22 3 -26 6 -13 3 11 10 26 15 33 8 9 6 12 -6 12 -12
0 -16 -9 -15 -32z"/>
<path d="M10284 3056 c-9 -23 3 -46 23 -45 17 1 17 2 1 6 -25 6 -22 23 3 23
12 0 19 5 17 13 -7 18 -37 21 -44 3z m33 -2 c-3 -3 -12 -4 -19 -1 -8 3 -5 6 6
6 11 1 17 -2 13 -5z"/>
<path d="M10340 3060 c0 -6 7 -13 15 -16 8 -4 15 -11 15 -16 0 -6 -8 -7 -17
-3 -14 5 -15 3 -6 -6 13 -13 43 -6 43 10 0 5 -10 13 -22 17 -22 7 -22 7 -3 15
19 7 19 8 -2 8 -13 1 -23 -4 -23 -9z"/>
<path d="M10584 3062 c19 -8 19 -9 -3 -15 -28 -7 -23 -31 8 -35 19 -3 22 0 19
25 -2 19 -9 29 -23 30 -19 3 -19 3 -1 -5z m11 -32 c-3 -5 -10 -10 -16 -10 -5
0 -9 5 -9 10 0 6 7 10 16 10 8 0 12 -4 9 -10z"/>
<path d="M10653 3045 c2 -23 7 -31 25 -33 19 -3 22 1 21 30 -1 28 -2 29 -7 10
-4 -13 -11 -23 -17 -23 -5 0 -13 10 -17 23 -6 19 -7 18 -5 -7z"/>
<path d="M10715 3060 c-12 -19 6 -50 28 -49 17 1 18 2 5 6 -22 5 -24 23 -3 23
8 0 15 7 15 15 0 17 -35 21 -45 5z"/>
<path d="M10904 3055 c-9 -22 3 -45 23 -45 15 0 15 2 -3 15 -19 14 -18 14 4
15 13 0 22 6 22 15 0 8 -9 15 -20 15 -11 0 -23 -7 -26 -15z"/>
<path d="M10984 3061 c19 -7 19 -8 -3 -14 -28 -7 -23 -31 7 -35 19 -3 22 1 22
27 0 26 -4 31 -22 30 -21 0 -22 -1 -4 -8z m16 -31 c0 -5 -4 -10 -10 -10 -5 0
-10 5 -10 10 0 6 5 10 10 10 6 0 10 -4 10 -10z"/>
<path d="M9151 2920 c1 -34 3 -39 8 -21 9 35 29 37 34 4 l4 -28 2 28 c0 18 -5
30 -16 34 -10 4 -21 11 -25 17 -4 6 -7 -9 -7 -34z"/>
<path d="M9430 2945 c-7 -9 -10 -25 -6 -41 5 -20 12 -25 34 -22 19 2 28 9 30
26 6 43 -33 68 -58 37z m48 -23 c2 -14 -3 -25 -13 -29 -21 -7 -34 12 -27 39 6
26 36 19 40 -10z"/>
<path d="M9573 2920 c0 -25 2 -35 4 -22 2 12 2 32 0 45 -2 12 -4 2 -4 -23z"/>
<path d="M9696 2944 c-19 -18 -21 -65 -4 -82 7 -7 21 -12 33 -11 17 1 16 2 -5
8 -20 6 -25 13 -25 40 0 41 25 62 49 42 18 -15 22 -51 6 -51 -5 0 -10 9 -10
21 0 29 -34 21 -38 -9 -3 -21 0 -23 30 -20 38 4 50 35 23 62 -21 20 -39 20
-59 0z m30 -51 c-10 -10 -19 5 -10 18 6 11 8 11 12 0 2 -7 1 -15 -2 -18z"/>
<path d="M9787 2953 c-13 -13 -7 -32 13 -38 11 -3 20 -11 20 -17 0 -6 -9 -8
-20 -5 -11 3 -20 1 -20 -4 0 -12 47 -12 55 0 6 10 -21 41 -36 41 -5 0 -9 5 -9
11 0 6 9 9 20 6 11 -3 20 -1 20 4 0 10 -33 12 -43 2z"/>
<path d="M9852 2923 c-2 -39 0 -43 22 -43 13 0 27 7 30 16 10 25 7 66 -4 59
-5 -3 -10 -19 -10 -36 0 -45 -28 -38 -33 9 l-4 37 -1 -42z"/>
<path d="M9920 2919 c0 -38 1 -40 28 -37 26 3 30 15 23 71 -1 4 -12 7 -26 7
-23 0 -25 -4 -25 -41z m35 11 c-4 -12 -2 -20 5 -20 6 0 8 -4 5 -10 -13 -21
-32 -9 -32 20 0 19 5 30 14 30 10 0 12 -6 8 -20z"/>
<path d="M9995 2931 c3 -18 5 -37 5 -42 0 -20 19 -7 27 18 l10 28 6 -28 c8
-30 27 -37 27 -9 0 9 3 28 6 42 4 21 3 20 -9 -5 l-14 -30 -8 30 -8 30 -12 -29
-12 -29 -12 29 -11 29 5 -34z"/>
<path d="M10101 2924 c-7 -19 -10 -38 -7 -41 3 -4 6 -1 6 5 0 7 9 12 20 12 11
0 20 -5 20 -12 0 -6 3 -9 6 -5 7 6 -17 77 -26 77 -3 0 -12 -16 -19 -36z m29
-4 c0 -5 -4 -10 -10 -10 -5 0 -10 5 -10 10 0 6 5 10 10 10 6 0 10 -4 10 -10z"/>
<path d="M10163 2937 c8 -13 17 -32 20 -42 4 -18 5 -18 6 2 0 12 6 25 11 28 6
3 10 14 10 23 0 13 -2 13 -14 -4 -14 -18 -15 -18 -21 -1 -4 9 -12 17 -17 17
-6 0 -4 -10 5 -23z"/>
<path d="M10279 2958 c-1 -2 -3 -20 -4 -40 -4 -36 -2 -38 23 -37 17 1 21 3 10
6 -22 6 -24 23 -2 23 8 0 12 5 9 10 -4 6 -11 8 -16 5 -5 -4 -9 1 -9 9 0 8 8
17 18 19 13 4 11 5 -5 6 -13 0 -23 0 -24 -1z"/>
<path d="M10490 2950 c0 -5 7 -7 15 -4 20 8 19 -15 -2 -38 -19 -21 -18 -23 23
-31 28 -5 31 -3 47 39 20 54 13 59 -9 5 -12 -30 -20 -38 -34 -34 -18 5 -18 7
-4 29 9 13 13 28 9 34 -8 13 -45 13 -45 0z"/>
<path d="M10606 2951 c-4 -5 3 -7 14 -4 26 7 25 -7 -1 -41 l-20 -26 28 1 c18
1 22 3 10 6 -17 4 -18 6 -2 24 10 10 15 25 12 34 -7 16 -32 20 -41 6z"/>
<path d="M10678 2953 c26 -5 26 -6 7 -43 -9 -17 -12 -30 -7 -30 7 0 32 56 32
73 0 4 -12 6 -27 6 -24 -2 -25 -2 -5 -6z"/>
<path d="M10762 2920 c0 -25 2 -37 5 -27 2 9 13 17 23 17 10 0 21 -8 23 -17 3
-10 5 2 5 27 0 32 -2 39 -7 25 -10 -26 -34 -26 -43 0 -4 12 -6 3 -6 -25z"/>
<path d="M10840 2920 c0 -37 2 -40 28 -39 23 2 24 2 5 6 -26 5 -31 23 -8 23 8
0 15 5 15 10 0 6 -7 10 -15 10 -23 0 -18 18 8 23 19 4 18 4 -5 6 -26 1 -28 -2
-28 -39z"/>
<path d="M10900 2921 c0 -38 2 -41 28 -40 23 2 23 2 5 6 -18 4 -22 10 -19 34
2 16 0 32 -5 35 -5 3 -9 -13 -9 -35z"/>
<path d="M10967 2954 c-11 -11 -8 -74 3 -74 6 0 10 6 10 14 0 7 9 16 21 19 13
4 20 12 17 24 -3 18 -38 30 -51 17z m41 -22 c2 -7 -3 -12 -12 -12 -9 0 -16 7
-16 16 0 17 22 14 28 -4z"/>
<path d="M11046 2919 c-9 -23 -15 -43 -13 -46 3 -2 12 15 21 38 9 23 15 43 13
46 -3 2 -12 -15 -21 -38z"/>
<path d="M11087 2946 c-6 -16 11 -36 30 -36 7 0 13 -5 13 -11 0 -7 -10 -9 -25
-7 -13 3 -22 1 -19 -3 8 -13 42 -11 50 3 4 7 -2 18 -14 26 -28 19 -28 35 -1
27 15 -5 19 -4 15 4 -10 16 -43 14 -49 -3z"/>
<path d="M11157 2952 c6 -4 13 -23 16 -42 l4 -35 1 37 c2 25 7 38 20 41 9 3 1
5 -18 6 -19 0 -30 -3 -23 -7z"/>
<path d="M11221 2938 c-11 -29 4 -58 30 -58 24 0 33 21 25 55 -8 32 -43 34
-55 3z m44 -19 c0 -15 -7 -25 -17 -27 -13 -3 -18 3 -18 21 0 13 3 27 7 31 13
12 28 -1 28 -25z"/>
<path d="M11301 2918 c1 -24 3 -35 6 -25 2 9 13 17 23 17 10 0 20 6 22 13 9
22 -3 37 -28 37 -22 0 -24 -4 -23 -42z m39 17 c0 -8 -7 -15 -15 -15 -8 0 -15
7 -15 15 0 8 7 15 15 15 8 0 15 -7 15 -15z"/>
<path d="M8931 2898 c0 -24 3 -37 6 -30 2 6 14 12 24 12 31 0 22 54 -8 58 -21
3 -23 -1 -22 -40z m37 9 c2 -10 -3 -17 -12 -17 -10 0 -16 9 -16 21 0 24 23 21
28 -4z"/>
<path d="M8993 2915 c2 -23 7 -31 25 -33 19 -3 22 1 21 30 -2 31 -2 31 -6 5
-5 -33 -24 -31 -35 4 -6 22 -7 21 -5 -6z"/>
<path d="M9060 2910 c0 -16 2 -30 4 -30 2 0 6 14 8 30 3 17 1 30 -4 30 -4 0
-8 -13 -8 -30z"/>
<path d="M9094 2925 c-9 -23 3 -45 26 -45 11 0 20 4 20 9 0 5 -9 7 -21 4 -17
-5 -20 -2 -17 13 2 10 11 18 21 18 9 -1 14 2 11 7 -8 14 -34 10 -40 -6z"/>
<path d="M9220 2931 c0 -6 7 -8 15 -5 10 4 15 0 15 -15 0 -12 -4 -21 -10 -21
-5 0 -10 5 -10 11 0 5 -5 7 -10 4 -15 -9 -2 -25 21 -25 16 0 20 6 17 27 -3 26
-38 48 -38 24z"/>
<path d="M9280 2925 c0 -9 8 -19 17 -22 15 -6 15 -7 -3 -14 -17 -7 -17 -8 4
-8 13 -1 22 5 22 14 0 8 -7 15 -15 15 -8 0 -15 5 -15 11 0 6 7 8 16 5 8 -3 12
-2 9 4 -10 16 -35 12 -35 -5z"/>
<path d="M9335 2920 c-8 -27 1 -40 28 -39 18 1 19 2 4 6 -17 4 -17 5 -1 17 9
7 14 18 10 24 -11 19 -34 14 -41 -8z m35 0 c0 -5 -4 -10 -10 -10 -5 0 -10 5
-10 10 0 6 5 10 10 10 6 0 10 -4 10 -10z"/>
<path d="M9507 2933 c-4 -3 -7 -18 -7 -31 0 -28 10 -25 14 4 4 29 24 27 29 -3
4 -27 4 -27 6 5 1 25 -3 32 -17 32 -10 0 -22 -3 -25 -7z"/>
<path d="M9596 2919 c4 -13 8 -35 7 -48 -1 -29 11 -16 26 28 13 39 6 56 -8 20
-7 -16 -10 -19 -10 -7 -1 9 -6 20 -12 24 -8 4 -9 -1 -3 -17z"/>
<path d="M10343 2915 c0 -41 32 -43 33 -3 1 22 -2 26 -11 18 -9 -8 -14 -7 -17
2 -3 7 -5 -1 -5 -17z"/>
<path d="M10398 2923 c-2 -10 -1 -29 3 -43 4 -14 7 -19 8 -12 1 6 7 12 15 12
20 0 29 16 21 40 -8 25 -41 26 -47 3z m37 -13 c0 -7 -6 -15 -12 -17 -8 -3 -13
4 -13 17 0 13 5 20 13 18 6 -3 12 -11 12 -18z"/>
<path d="M9053 2790 c0 -25 2 -35 4 -22 2 12 2 32 0 45 -2 12 -4 2 -4 -23z"/>
<path d="M9083 2785 c0 -27 2 -38 4 -22 2 15 2 37 0 50 -2 12 -4 0 -4 -28z"/>
<path d="M9143 2800 c1 -17 7 -26 17 -26 10 0 16 9 17 26 0 14 -1 18 -4 8 -2
-10 -8 -18 -13 -18 -5 0 -11 8 -13 18 -3 10 -4 6 -4 -8z"/>
<path d="M9230 2784 c0 -19 4 -33 8 -30 8 5 4 66 -4 66 -2 0 -4 -16 -4 -36z"/>
<path d="M9393 2799 c1 -21 5 -25 22 -20 16 4 17 6 3 9 -9 2 -19 11 -21 20 -3
9 -4 5 -4 -9z"/>
<path d="M9675 2812 c4 -8 -2 -23 -16 -38 -12 -13 -18 -24 -13 -24 5 0 17 12
28 26 14 21 16 28 6 37 -10 9 -11 9 -5 -1z"/>
<path d="M9711 2804 c0 -11 3 -14 6 -6 3 7 2 16 -1 19 -3 4 -6 -2 -5 -13z"/>
<path d="M8943 2803 c-18 -7 -16 -52 3 -60 8 -3 21 0 27 7 10 10 8 12 -6 7
-19 -7 -34 14 -22 33 5 8 11 8 21 -1 8 -7 14 -7 14 -1 0 12 -21 21 -37 15z"/>
<path d="M9000 2798 c-12 -8 -12 -9 3 -4 9 3 17 3 17 -1 0 -3 -8 -12 -17 -19
-13 -9 -15 -16 -7 -24 15 -15 44 -2 44 20 0 26 -22 41 -40 28z m20 -38 c0 -5
-4 -10 -10 -10 -5 0 -10 5 -10 10 0 6 5 10 10 10 6 0 10 -4 10 -10z"/>
<path d="M9265 2779 c-4 -6 -5 -12 -2 -15 2 -3 7 2 10 11 7 17 1 20 -8 4z"/>
<path d="M9454 2775 c-4 -9 -4 -19 0 -22 3 -4 6 1 6 10 0 22 27 22 34 0 4 -14
4 -14 3 2 -3 25 -35 32 -43 10z"/>
<path d="M9614 2770 c0 -13 4 -16 10 -10 7 7 7 13 0 20 -6 6 -10 3 -10 -10z"/>
<path d="M9290 2770 c0 -5 5 -10 11 -10 5 0 7 5 4 10 -3 6 -8 10 -11 10 -2 0
-4 -4 -4 -10z"/>
<path d="M9563 2458 c-31 -15 -49 -62 -35 -93 27 -59 96 -65 135 -13 46 61
-30 142 -100 106z m93 -33 c19 -29 12 -75 -12 -75 -9 0 -18 9 -21 20 -3 13
-14 20 -29 20 -12 0 -26 5 -29 10 -3 6 -1 10 4 10 6 0 20 9 31 20 26 26 36 25
56 -5z m-79 -62 c30 -39 13 -54 -22 -19 -26 26 -34 61 -13 54 6 -2 22 -18 35
-35z"/>
<path d="M10397 2433 c-4 -3 -7 -27 -7 -51 0 -52 7 -53 11 -2 2 19 7 41 12 48
10 13 -4 18 -16 5z"/>
<path d="M10442 2423 c-4 -10 -5 -34 -1 -53 6 -35 6 -35 9 -5 1 17 3 40 4 53
3 27 0 28 -12 5z"/>
<path d="M9776 2410 c4 -14 12 -36 19 -49 12 -23 12 -23 29 19 9 23 15 44 12
47 -2 2 -10 -13 -17 -34 l-12 -38 -19 40 c-10 22 -15 29 -12 15z"/>
<path d="M10091 2383 l2 -48 6 39 6 40 14 -39 c10 -28 16 -34 22 -24 5 8 9 19
9 24 0 6 -4 4 -9 -4 -6 -10 -12 -4 -21 23 -16 50 -30 45 -29 -11z"/>
<path d="M10156 2414 c-4 -9 -4 -19 -1 -22 3 -3 6 1 6 9 1 8 5 -4 9 -26 l7
-40 2 48 c1 46 -11 63 -23 31z"/>
<path d="M10307 2423 c-11 -11 -8 -58 5 -71 31 -31 71 15 49 57 -11 20 -41 28
-54 14z m48 -22 c8 -26 -5 -53 -24 -49 -10 2 -17 15 -19 36 -3 26 0 32 17 32
11 0 22 -8 26 -19z"/>
<path d="M10632 2385 c1 -40 2 -43 5 -15 l5 35 29 -35 28 -35 -1 50 c-1 40 -2
43 -5 15 l-5 -35 -29 35 -28 35 1 -50z"/>
<path d="M9863 2375 c0 -22 2 -30 4 -17 2 12 2 30 0 40 -3 9 -5 -1 -4 -23z"/>
<path d="M9894 2396 c-9 -23 0 -51 16 -52 9 0 10 1 3 3 -21 7 -15 23 8 23 14
0 19 5 17 17 -4 23 -36 29 -44 9z m36 -6 c0 -5 -7 -10 -15 -10 -8 0 -15 5 -15
10 0 6 7 10 15 10 8 0 15 -4 15 -10z"/>
<path d="M9961 2378 c5 -18 9 -35 10 -38 0 -3 4 5 10 18 10 25 29 21 29 -6 1
-14 2 -15 9 -2 5 8 12 26 15 40 l7 25 -14 -24 -15 -24 -7 24 -8 24 -9 -25 -10
-25 -9 23 c-13 33 -19 26 -8 -10z"/>
<path d="M10206 2390 c3 -14 7 -35 8 -47 1 -26 12 -21 19 9 2 13 8 32 11 43 5
13 2 11 -8 -5 l-15 -25 -11 25 -11 25 7 -25z"/>
<path d="M10484 2396 c-9 -23 0 -51 16 -52 9 0 10 1 3 3 -21 7 -15 23 8 23 14
0 19 5 17 17 -4 23 -36 29 -44 9z m36 -6 c0 -5 -7 -10 -15 -10 -8 0 -15 5 -15
10 0 6 7 10 15 10 8 0 15 -4 15 -10z"/>
<path d="M10553 2375 c0 -22 2 -30 4 -17 2 12 2 30 0 40 -3 9 -5 -1 -4 -23z"/>
<path d="M10724 2396 c-17 -43 25 -75 46 -36 9 16 8 25 -1 36 -15 18 -38 18
-45 0z m39 -8 c6 -19 -3 -38 -19 -38 -8 0 -14 10 -14 25 0 26 25 35 33 13z"/>
<path d="M10791 2394 c0 -11 3 -14 6 -6 3 7 2 16 -1 19 -3 4 -6 -2 -5 -13z"/>
<path d="M10820 2390 c0 -5 5 -10 10 -10 6 0 10 5 10 10 0 6 -4 10 -10 10 -5
0 -10 -4 -10 -10z"/>
<path d="M10800 2360 c0 -5 5 -10 10 -10 6 0 10 5 10 10 0 6 -4 10 -10 10 -5
0 -10 -4 -10 -10z"/>
<path d="M10840 2361 c0 -6 5 -13 10 -16 6 -3 10 1 10 9 0 9 -4 16 -10 16 -5
0 -10 -4 -10 -9z"/>
<path d="M8881 1923 c-95 -47 -111 -184 -29 -260 74 -69 195 -45 243 48 21 40
19 118 -5 153 -44 68 -137 94 -209 59z m89 -109 c0 -19 4 -25 20 -22 10 2 19
-1 20 -7 0 -5 -8 -11 -20 -13 -14 -2 -20 -11 -20 -29 0 -30 -24 -26 -28 5 -2
14 -11 22 -22 22 -10 0 -22 5 -25 10 -4 6 5 10 19 10 21 0 26 5 26 25 0 16 6
25 15 25 9 0 15 -10 15 -26z"/>
<path d="M9332 1818 c-7 -7 -11 -21 -11 -32 1 -21 1 -21 6 -1 3 11 10 26 15
33 13 15 6 16 -10 0z"/>
<path d="M9550 1810 c0 -5 5 -10 11 -10 5 0 7 5 4 10 -3 6 -8 10 -11 10 -2 0
-4 -4 -4 -10z"/>
<path d="M9449 1778 c4 -28 6 -29 9 -9 2 13 0 27 -5 32 -6 6 -7 -3 -4 -23z"/>
<path d="M9743 1795 c-3 -9 -3 -18 -1 -21 3 -3 8 4 11 16 6 23 -1 27 -10 5z"/>
<path d="M9979 1778 c4 -28 6 -29 9 -9 2 13 0 27 -5 32 -6 6 -7 -3 -4 -23z"/>
<path d="M10012 1780 c0 -14 2 -19 5 -12 2 6 2 18 0 25 -3 6 -5 1 -5 -13z"/>
<path d="M9834 1760 c0 -13 4 -16 10 -10 7 7 7 13 0 20 -6 6 -10 3 -10 -10z"/>
<path d="M9905 1771 c4 -8 2 -17 -6 -22 -9 -6 -10 -9 -2 -9 19 0 27 21 13 33
-10 9 -11 9 -5 -2z"/>
<path d="M9945 1769 c-4 -6 -5 -12 -2 -15 2 -3 7 2 10 11 7 17 1 20 -8 4z"/>
<path d="M9550 1761 c0 -6 4 -13 10 -16 6 -3 7 1 4 9 -7 18 -14 21 -14 7z"/>
<path d="M1765 7026 c-25 -21 -37 -42 -40 -65 l-4 -34 30 41 c17 23 34 42 37
42 4 1 19 11 34 23 l27 22 -24 1 c-14 1 -39 -11 -60 -30z"/>
<path d="M4787 7003 c-10 -9 13 -44 24 -38 5 4 9 3 8 -2 -1 -4 -1 -15 0 -23 1
-13 3 -13 10 -1 12 19 -6 54 -21 45 -6 -4 -8 -3 -4 4 7 12 -8 25 -17 15z"/>
<path d="M8253 6966 c17 -26 24 -30 30 -19 10 16 -18 53 -39 53 -9 0 -6 -11 9
-34z"/>
<path d="M11702 6966 c18 -28 25 -32 31 -20 10 17 -17 54 -40 54 -9 0 -7 -10
9 -34z"/>
<path d="M5133 6555 c0 -22 2 -30 4 -17 2 12 2 30 0 40 -3 9 -5 -1 -4 -23z"/>
<path d="M8581 6574 c0 -11 3 -14 6 -6 3 7 2 16 -1 19 -3 4 -6 -2 -5 -13z"/>
<path d="M8582 6530 c0 -14 2 -19 5 -12 2 6 2 18 0 25 -3 6 -5 1 -5 -13z"/>
<path d="M4905 4281 c-3 -5 -1 -12 5 -16 5 -3 10 1 10 9 0 18 -6 21 -15 7z"/>
<path d="M8361 4274 c0 -11 3 -14 6 -6 3 7 2 16 -1 19 -3 4 -6 -2 -5 -13z"/>
<path d="M11811 4274 c0 -11 3 -14 6 -6 3 7 2 16 -1 19 -3 4 -6 -2 -5 -13z"/>
</g>
</svg>
